<?xml version="1.0" encoding="UTF-8" standalone="no"?>
<!-- Generator: Adobe Illustrator 14.0.0, SVG Export Plug-In . SVG Version: 6.00 Build 43363)  -->

<svg
   xmlns:dc="http://purl.org/dc/elements/1.1/"
   xmlns:cc="http://creativecommons.org/ns#"
   xmlns:rdf="http://www.w3.org/1999/02/22-rdf-syntax-ns#"
   xmlns:svg="http://www.w3.org/2000/svg"
   xmlns="http://www.w3.org/2000/svg"
   xmlns:xlink="http://www.w3.org/1999/xlink"
   xmlns:sodipodi="http://sodipodi.sourceforge.net/DTD/sodipodi-0.dtd"
   xmlns:inkscape="http://www.inkscape.org/namespaces/inkscape"
   version="1.1"
   id="Layer_1"
   x="0px"
   y="0px"
   width="500px"
   height="500px"
   viewBox="0 0 500 500"
   enable-background="new 0 0 500 500"
   xml:space="preserve"
   inkscape:version="0.48.4 r9939"
   sodipodi:docname="mesh_earth_p2_font.svg"><metadata
     id="metadata3457"><rdf:RDF><cc:Work
         rdf:about=""><dc:format>image/svg+xml</dc:format><dc:type
           rdf:resource="http://purl.org/dc/dcmitype/StillImage" /><dc:title /></cc:Work></rdf:RDF></metadata><defs
     id="defs3455" /><sodipodi:namedview
     pagecolor="#ffffff"
     bordercolor="#666666"
     borderopacity="1"
     objecttolerance="10"
     gridtolerance="10"
     guidetolerance="10"
     inkscape:pageopacity="0"
     inkscape:pageshadow="2"
     inkscape:window-width="683"
     inkscape:window-height="692"
     id="namedview3453"
     showgrid="false"
     inkscape:zoom="0.80620459"
     inkscape:cx="212.42414"
     inkscape:cy="221.93646"
     inkscape:window-x="1"
     inkscape:window-y="24"
     inkscape:window-maximized="0"
     inkscape:current-layer="g3371" /><g
     id="g3323"><ellipse
       fill-rule="evenodd"
       clip-rule="evenodd"
       fill="#20B24B"
       cx="248.464"
       cy="251.788"
       rx="222.795"
       ry="225.095"
       id="ellipse3325" /><path
       fill-rule="evenodd"
       clip-rule="evenodd"
       fill="#FFFFFF"
       d="M234.14,20.522c76.639-5.368,137.961,26.101,178.009,69.941   c36.981,40.485,67.604,103.22,60.572,183.595c-6.437,73.559-47.822,129.943-96.422,163.61   c-55.59,38.508-128.301,52.769-202.731,29.975c-62.391-19.107-113.225-65.966-137.217-122.396   c-26.049-61.278-26.814-144.834,9.89-209.823c20.699-36.65,58.482-74.018,105.075-94.919   C175.457,29.677,201.974,22.776,234.14,20.522z M231.666,59.24c2.837,4.93-4.46,11.434-1.235,17.485   c-7.136,2.366-10.512,8.531-16.069,12.488c-6.081-0.517-9.458-3.767-12.363-7.493c6.095-0.85,12.95-6.425,11.126-11.24   c-12.371,2.905-15.604,15.042-28.433,17.484c-2.041-0.019-0.692-3.464-2.472-3.747c-6.373,6.883-19.061,7.386-23.487,16.235   c0.519,5.721,6.449,5.974,8.655,9.993c-0.408,2.919-1.487,5.16-2.475,7.493c12.298-8.808,19.207-23.06,32.142-31.223   c3.266,1.697,7.78,2.131,6.18,8.742c4.119-0.417,5.484-3.617,11.127-2.497c-5.084,7.391,1.113,12.367,2.472,19.982   c-6.482,3.093,2.555,10.461-3.708,16.237c-4.631,0.914-6.91,0.713-11.126-1.25c0.644-1.848,1.83-3.147,2.473-4.995   c-7.5,1.581-14.816,3.348-16.07,11.24c2.365,0.526,5.321,0.452,4.946,3.747c-4.974,2.983-9.487,3.867-16.071,2.499   c-8.778,10.696-25.034,13.839-28.432,29.975c-5.375,5.443-14.111,5.538-18.542,12.489c-4.513,7.081,0.872,19.451-8.653,23.729   c-1.404-4.409-1.363-10.279-2.472-14.989c-23.239-1.792-47.223,5.506-42.03,34.971c13.17,7.3,12.901-13.431,24.724-7.493   c-2.125,4.513-4.297,8.98-4.944,14.987c3.913,1.457,9.732,0.991,11.125,4.995c-0.009,4.434,0.441,12.94,2.474,18.737   c12.944,4.675,20.752-5.321,28.431-9.993c7.538,3.415,13.941,1.259,23.487,1.249c2.453-0.855-0.771-7.44,3.709-6.245   c-0.694,13.775,11.001,20.916,24.724,23.729c3.023,4.854,6.147,9.609,8.653,14.988c17.512,8.141,59.239,18.875,35.848,44.962   c-0.238,16.504,1.299,25.159-2.471,37.469c-5.673-1.153-5.973,3.123-11.125,2.496c-6.498,17.998-5.579,43.489-19.78,53.704   c-2.224,10.346,4.42,19.787,4.945,31.225c6.288,3.433,12.904,9.624,14.835,13.738c83.274,8.41,144.318-27.373,184.189-68.691   c5.531-5.731,14.507-16.956,16.069-22.482c2.302-8.141,0.117-25.128,4.946-32.472c1.52-2.315,3.588,0.437,6.178-1.249   c3.298-2.143,4.502-10.038,9.892-12.489c1.714,0.768,0.186,4.808,2.472,4.996c10.569-27.822,21.41-68.019,13.599-106.161   c-7.99,8.996-19.281,14.66-29.668,21.233c4.713,3.526,12.46-2.88,17.306,1.249c0.727,12.808-4.729,19.371-7.418,28.727   c-10.149,5.562-13.53,17.969-22.251,24.978c-1.403,16.774,8.013,37.615-2.47,47.459c-2.591,2.431-7.042,0.712-9.892,4.996   c-7.168,27.728-20.375,49.354-51.918,52.454c-5.979-19.089-10.187-39.221-14.836-57.45c-2.48-9.731,4.685-17.218,4.945-26.229   c0.435-14.983-11.167-24.79-13.597-38.716c1.161-3.404,6.717-2.371,4.944-8.743c-6.084-1.764-14.457-1.214-18.543-4.995   c-12.702-0.489-27.544,1.184-38.322-1.248c-6.578-8.343-12.552-17.293-19.777-24.979c-1.861-38.099,19.733-52.5,32.141-76.186   c2.294-2.26,8.856-0.208,9.89-3.746c-5.354-0.419-12.949,1.426-14.834-2.499c-2.287-6.036-1.458-18.667,3.707-21.232   c5.106,1.435,9.727,1.435,14.834,0c-0.461-5.779-5.354-7.079-6.181-12.488c0.98-2.756,5.812-1.625,6.181-4.997   c-3.679-0.064-6.271,3.675-8.653,1.25c2.03-3.776,4.892-6.717,3.709-13.739c-4.375-0.694,0.414,8.812-4.943,9.993   c-2.979-0.513-2.688,2.282-6.182,1.249c-2.407-10.496,10.294-22.784,14.834-26.228c-3.151,4.824,6.19,16.472,9.89,22.48   c5.534-1.9,11.462-3.407,9.89-12.49c0.038-3.785-6.221-1.208-6.182-4.995c0-3.746,0-7.494,0-11.24   c1.462-1.438,4.37-1.414,7.417-1.25c4.811-28.639,35.843-18.087,49.446-11.24c-0.181-11.605-15.518-16.017-24.723-21.232   c-10.869-6.157-22.348-12.997-34.613-14.987c-13.939,14.723-27.703,36.015-51.92,36.219c-6.368,4.391-6.287,15.295-17.306,14.988   c-6.988-18.833,7.082-26.896,12.362-37.468c-9.354,0.575,1.949-7.069-1.236-7.494C247.974,52.401,238.534,54.522,231.666,59.24z    M216.833,59.24c-3.066,0.184-5.999,0.232-6.182-2.499c4.517-3.663,11.643-8.857,19.779-4.996c0.414-2.913,1.267-5.38,3.709-6.245   c22.612-8.264,44.59-0.573,61.808-8.741c-63.529-15.521-132.704,2.835-171.828,33.721c13.274-0.723,25.978,3.591,35.849,1.248   c8.545-2.027,11.462-12.606,21.016-12.489c6.927,5.498,8.102,7.184,11.125,12.489c3.825-4.045,4.906-10.862,13.598-9.99   C197.99,76.37,209.042,60.341,216.833,59.24z M221.778,59.24c0.962,0.276,1.436,1.045,1.235,2.499   c3.082-0.632,5.08-2.362,7.417-3.749C228.175,55.693,223.501,57.329,221.778,59.24z M177.275,76.726   c1.242-4.169-1.715-4.095-4.944-3.748C171.958,76.269,174.043,77.078,177.275,76.726z M331.796,110.447   c-0.041-3.371-4.77-8.39-7.416-4.998C328.01,105.946,325.444,112.7,331.796,110.447z M413.384,142.919   c7.217,4.781,7.364,16.706,18.542,17.484c-0.404-10.83-11.259-11.104-11.125-22.48   C416.264,137.503,414.459,139.842,413.384,142.919z M375.062,140.422c-0.523,4.465-3.293,6.664-2.473,12.489   c8.427-1.917,17.743-4.057,28.434-2.498C396.989,136.935,383.003,142.441,375.062,140.422z M351.576,156.658   c-4.671,2.774-5.664,9.263-13.6,8.742c-0.389-1.688-1.758-2.386-1.234-4.996c2.357-2.343,2.235,0.742,6.18,0   c0.787-9.537-8.62-8.775-12.361-13.737c-1.849,5.282,5.133,8.024,1.235,11.24c-4.617-1.63-5.688-9.728-2.471-13.739   c-9.668-1.895-10.322,9.271-18.544,4.997c-0.674,4.73-2.99,7.801-2.473,13.737c10.972-1.568,14.848,0.052,25.961,0   c3.91,8.955,10.93,14.77,19.777,18.735c2.126-1.602,1.532-5.947,4.945-6.245c8.191,4.656,17.946,5.439,29.668,3.746   c0.788-2.856,2.452-7.533,0-9.991c-11.475,3.261-17.604-5.194-19.777-14.987c-6.89-1.131-2.817,8.812-7.419,9.992   c-9.005-4.233-11.599-21.574-22.251-19.984C343.141,148.526,349.856,150.067,351.576,156.658z M40.061,215.357   c-1.77-5.705-3.014-11.942-3.71-18.735c-8.602,17.787-10.09,41.128-8.652,66.194c6.156,107.251,84.335,184.955,178.008,198.581   c-7.116-5.097-14.396-8.447-19.779-16.236c-3.072-4.447-3.426-10.49-6.18-14.985c-3.058-4.991-8.812-8.051-11.125-13.738   c-1.398-3.441,0.067-7.848-1.234-12.491c-4.382-15.602-15.362-28.607-12.363-48.708c-21.754-14.657-41.097-31.749-43.266-66.193   c4.794-4.731,9.63-9.421,8.653-19.983c-24.246-7.636-24.882-32.062-56.864-32.472c-3.492-4.383-8.098-7.638-12.362-11.24   c-1.792-2.437-1.228-7.48-2.472-11.242c-2.033-6.144-7.314-15.619-7.417-13.737C43.071,205.44,45.059,212.006,40.061,215.357z    M420.801,237.838c-0.026-13.295-11.957-14.563-14.833-24.978C407.521,224.611,413.162,232.235,420.801,237.838z"
       id="path3327" /></g><circle
     fill="#010101"
     cx="314.483"
     cy="128.583"
     r="7.994"
     id="circle3329" /><circle
     fill="#010101"
     cx="314.483"
     cy="257.878"
     r="7.994"
     id="circle3331" /><circle
     fill="#010101"
     cx="131.656"
     cy="136.577"
     r="7.993"
     id="circle3333" /><circle
     fill="#010101"
     cx="56.074"
     cy="165.137"
     r="7.994"
     id="circle3335" /><circle
     fill="#010101"
     cx="215.496"
     cy="322.126"
     r="7.994"
     id="circle3337" /><circle
     fill="#010101"
     cx="145.708"
     cy="265.872"
     r="7.993"
     id="circle3339" /><circle
     fill="#010101"
     cx="128.44"
     cy="181.125"
     r="7.994"
     id="circle3341" /><circle
     fill="#010101"
     cx="356.623"
     cy="157.145"
     r="7.993"
     id="circle3343" /><circle
     fill="#010101"
     cx="420.781"
     cy="295.494"
     r="7.994"
     id="circle3345" /><circle
     fill="#010101"
     cx="160.898"
     cy="149.432"
     r="7.993"
     id="circle3347" /><circle
     fill="#010101"
     cx="391.897"
     cy="181.125"
     r="7.994"
     id="circle3349" /><circle
     fill="none"
     stroke="#010101"
     stroke-width="15.3489"
     cx="245.219"
     cy="248.589"
     r="230.553"
     id="circle3351" /><path
     style="fill:none;stroke:#000000;stroke-width:50.65599823;stroke-miterlimit:4;stroke-opacity:1;stroke-dasharray:none"
     inkscape:connector-curvature="0"
     id="path3355"
     d="m 242.79313,40.831733 c 3.84178,-0.02314 8.07054,0.140391 12.61307,0.511135 34.70338,2.832352 87.71929,17.758388 126.39714,53.934018 43.74063,40.910864 67.43961,97.845754 69.01348,163.758444"
     sodipodi:nodetypes="cssc" /><path
     style="fill:none"
     inkscape:connector-curvature="0"
     id="path3357"
     d="M 419.541,384.548 C 358.963,481.276 231.446,510.577 134.721,449.999 37.999,389.424 8.695,261.903 69.269,165.181 129.846,68.456 257.365,39.152 354.092,99.729 c 96.724,60.575 126.029,188.096 65.449,284.819 z" /><text
     id="text3359"
     transform="matrix(0.98916692,0.14679509,-0.14679509,0.98916692,0,0)"
     x="270.22302"
     y="29.309299"
     style="font-size:12.0004015px"><tspan
       style="font-size:48.73933029px;fill:#ffffff;font-family:MyriadPro-Regular"
       id="tspan3361"
       font-size="48.7377"
       y="29.309299"
       x="270.22302" /></text>
<g
     id="g3371"><path
       d="m 252.87427,457.51519 c -41.50239,2.49032 -84.1511,-7.48594 -122.04751,-31.28012 C 70.438841,388.32056 45.114682,336.38201 36.068764,269.5714"
       id="path3373"
       style="fill:none;stroke:#000000;stroke-width:38.37220001;stroke-opacity:1"
       inkscape:connector-curvature="0"
       sodipodi:nodetypes="ccc" /><path
       fill="none"
       d="M428.543,373.274c68.201-101.245,41.412-238.611-59.836-306.812C267.463-1.739,130.097,25.049,61.895,126.298   C-6.306,227.544,20.484,364.91,121.729,433.109C222.979,501.313,360.342,474.522,428.543,373.274z"
       id="path3375" /><text
       transform="matrix(0.17853498,0.98393357,-0.98393357,0.17853498,0,0)"
       id="text3377"
       style="font-size:36px;font-style:normal;font-variant:normal;font-weight:normal;font-stretch:normal;text-align:start;line-height:125%;writing-mode:lr-tb;text-anchor:start;font-family:Maven Pro;-inkscape-font-specification:Maven Pro"
       sodipodi:linespacing="125%"
       x="279.89169"
       y="25.078081"><tspan
         x="279.89169"
         y="25.078081"
         font-size="36.4535"
         id="tspan3379"
         style="font-size:36px;font-style:normal;font-variant:normal;font-weight:normal;font-stretch:normal;text-align:start;line-height:125%;writing-mode:lr-tb;text-anchor:start;fill:#ffffff;font-family:Maven Pro;-inkscape-font-specification:Maven Pro">M</tspan><tspan
         x="311.02435"
         y="24.647097"
         font-size="36.4535"
         rotate="-6.5560002"
         id="tspan3381"
         style="font-size:36px;font-style:normal;font-variant:normal;font-weight:normal;font-stretch:normal;text-align:start;line-height:125%;writing-mode:lr-tb;text-anchor:start;fill:#ffffff;font-family:Maven Pro;-inkscape-font-specification:Maven Pro">E</tspan><tspan
         x="330.17853"
         y="22.388201"
         font-size="36.4535"
         rotate="-11.537"
         id="tspan3383"
         style="font-size:36px;font-style:normal;font-variant:normal;font-weight:normal;font-stretch:normal;text-align:start;line-height:125%;writing-mode:lr-tb;text-anchor:start;fill:#ffffff;font-family:Maven Pro;-inkscape-font-specification:Maven Pro">S</tspan><tspan
         x="349.40271"
         y="18.530367"
         font-size="36.4535"
         rotate="-17.362"
         id="tspan3385"
         style="font-size:36px;font-style:normal;font-variant:normal;font-weight:normal;font-stretch:normal;text-align:start;line-height:125%;writing-mode:lr-tb;text-anchor:start;fill:#ffffff;font-family:Maven Pro;-inkscape-font-specification:Maven Pro">H</tspan><tspan
         x="373.11768"
         y="10.74469"
         font-size="36.4535"
         rotate="-21.768999"
         id="tspan3387"
         style="font-size:36px;font-style:normal;font-variant:normal;font-weight:normal;font-stretch:normal;text-align:start;line-height:125%;writing-mode:lr-tb;text-anchor:start;fill:#ffffff;font-family:Maven Pro;-inkscape-font-specification:Maven Pro" /><tspan
         x="380.83835"
         y="7.6488304"
         font-size="36.4535"
         rotate="-23.938"
         id="tspan3389"
         style="font-size:36px;font-style:normal;font-variant:normal;font-weight:normal;font-stretch:normal;text-align:start;line-height:125%;writing-mode:lr-tb;text-anchor:start;fill:#ffffff;font-family:Maven Pro;-inkscape-font-specification:Maven Pro" /><tspan
         x="388.88"
         y="4.2249765"
         font-size="36.4535"
         rotate="-27.573999"
         id="tspan3391"
         style="font-size:36px;font-style:normal;font-variant:normal;font-weight:normal;font-stretch:normal;text-align:start;line-height:125%;writing-mode:lr-tb;text-anchor:start;fill:#ffffff;font-family:Maven Pro;-inkscape-font-specification:Maven Pro">T</tspan><tspan
         x="406.43027"
         y="-4.8716273"
         font-size="36.4535"
         rotate="-33.469002"
         id="tspan3393"
         style="font-size:36px;font-style:normal;font-variant:normal;font-weight:normal;font-stretch:normal;text-align:start;line-height:125%;writing-mode:lr-tb;text-anchor:start;fill:#ffffff;font-family:Maven Pro;-inkscape-font-specification:Maven Pro">H</tspan><tspan
         x="427.47537"
         y="-19.063025"
         font-size="36.4535"
         rotate="-39.312"
         id="tspan3395"
         style="font-size:36px;font-style:normal;font-variant:normal;font-weight:normal;font-stretch:normal;text-align:start;line-height:125%;writing-mode:lr-tb;text-anchor:start;fill:#ffffff;font-family:Maven Pro;-inkscape-font-specification:Maven Pro">E</tspan><tspan
         x="441.97873"
         y="-31.1845"
         font-size="36.4535"
         rotate="-42.873001"
         id="tspan3397"
         style="font-size:36px;font-style:normal;font-variant:normal;font-weight:normal;font-stretch:normal;text-align:start;line-height:125%;writing-mode:lr-tb;text-anchor:start;fill:#ffffff;font-family:Maven Pro;-inkscape-font-specification:Maven Pro" /><tspan
         x="448.06848"
         y="-36.853249"
         font-size="36.4535"
         rotate="-45.002998"
         id="tspan3399"
         style="font-size:36px;font-style:normal;font-variant:normal;font-weight:normal;font-stretch:normal;text-align:start;line-height:125%;writing-mode:lr-tb;text-anchor:start;fill:#ffffff;font-family:Maven Pro;-inkscape-font-specification:Maven Pro" /><tspan
         x="454.35721"
         y="-42.922997"
         font-size="36.4535"
         rotate="-48.709999"
         id="tspan3401"
         style="font-size:36px;font-style:normal;font-variant:normal;font-weight:normal;font-stretch:normal;text-align:start;line-height:125%;writing-mode:lr-tb;text-anchor:start;fill:#ffffff;font-family:Maven Pro;-inkscape-font-specification:Maven Pro">P</tspan><tspan
         x="467.99362"
         y="-58.612312"
         font-size="36.4535"
         rotate="-53.777"
         id="tspan3403"
         style="font-size:36px;font-style:normal;font-variant:normal;font-weight:normal;font-stretch:normal;text-align:start;line-height:125%;writing-mode:lr-tb;text-anchor:start;fill:#ffffff;font-family:Maven Pro;-inkscape-font-specification:Maven Pro">L</tspan><tspan
         x="479.10413"
         y="-73.694664"
         font-size="36.4535"
         rotate="-59.307999"
         id="tspan3405"
         style="font-size:36px;font-style:normal;font-variant:normal;font-weight:normal;font-stretch:normal;text-align:start;line-height:125%;writing-mode:lr-tb;text-anchor:start;fill:#ffffff;font-family:Maven Pro;-inkscape-font-specification:Maven Pro">A</tspan><tspan
         x="491.37756"
         y="-94.484779"
         font-size="36.4535"
         rotate="-65.827003"
         id="tspan3407"
         style="font-size:36px;font-style:normal;font-variant:normal;font-weight:normal;font-stretch:normal;text-align:start;line-height:125%;writing-mode:lr-tb;text-anchor:start;fill:#ffffff;font-family:Maven Pro;-inkscape-font-specification:Maven Pro">N</tspan><tspan
         x="501.64313"
         y="-117.9408"
         font-size="36.4535"
         rotate="-71.716003"
         id="tspan3409"
         style="font-size:36px;font-style:normal;font-variant:normal;font-weight:normal;font-stretch:normal;text-align:start;line-height:125%;writing-mode:lr-tb;text-anchor:start;fill:#ffffff;font-family:Maven Pro;-inkscape-font-specification:Maven Pro">E</tspan><tspan
         x="507.6499"
         y="-136.30299"
         font-size="36.4535"
         rotate="-76.760002"
         id="tspan3411"
         style="font-size:36px;font-style:normal;font-variant:normal;font-weight:normal;font-stretch:normal;text-align:start;line-height:125%;writing-mode:lr-tb;text-anchor:start;fill:#ffffff;font-family:Maven Pro;-inkscape-font-specification:Maven Pro">T</tspan></text>
</g><line
     fill="none"
     stroke="#010101"
     stroke-width="2.5581"
     x1="56.074"
     y1="165.137"
     x2="128.44"
     y2="181.125"
     id="line3413" /><line
     fill="none"
     stroke="#010101"
     stroke-width="2.5581"
     x1="128.44"
     y1="181.125"
     x2="131.656"
     y2="136.577"
     id="line3415" /><line
     fill="none"
     stroke="#010101"
     stroke-width="2.5581"
     x1="131.656"
     y1="136.577"
     x2="160.897"
     y2="149.432"
     id="line3417" /><line
     fill="none"
     stroke="#010101"
     stroke-width="2.5581"
     x1="160.897"
     y1="149.432"
     x2="314.481"
     y2="128.583"
     id="line3419" /><line
     fill="none"
     stroke="#010101"
     stroke-width="2.5581"
     x1="145.708"
     y1="265.872"
     x2="128.44"
     y2="181.125"
     id="line3421" /><line
     fill="none"
     stroke="#010101"
     stroke-width="2.5581"
     x1="128.44"
     y1="181.125"
     x2="160.897"
     y2="149.432"
     id="line3423" /><line
     fill="none"
     stroke="#010101"
     stroke-width="2.5581"
     x1="314.481"
     y1="257.878"
     x2="314.481"
     y2="128.583"
     id="line3425" /><line
     fill="none"
     stroke="#010101"
     stroke-width="2.5581"
     x1="314.481"
     y1="128.583"
     x2="356.624"
     y2="157.145"
     id="line3427" /><line
     fill="none"
     stroke="#010101"
     stroke-width="2.5581"
     x1="314.481"
     y1="128.583"
     x2="145.708"
     y2="265.872"
     id="line3429" /><line
     x1="145.708"
     y1="265.872"
     x2="215.495"
     y2="322.126"
     id="line3431"
     stroke-width="2.5581"
     stroke="#010101"
     fill="none" /><line
     fill="none"
     stroke="#010101"
     stroke-width="2.5581"
     x1="215.495"
     y1="322.126"
     x2="160.897"
     y2="149.432"
     id="line3433" /><line
     fill="none"
     stroke="#010101"
     stroke-width="2.5581"
     x1="160.897"
     y1="149.432"
     x2="391.896"
     y2="181.125"
     id="line3435" /><line
     fill="none"
     stroke="#010101"
     stroke-width="2.5581"
     x1="391.896"
     y1="181.125"
     x2="314.481"
     y2="257.878"
     id="line3437" /><line
     fill="none"
     stroke="#010101"
     stroke-width="2.5581"
     x1="314.481"
     y1="257.878"
     x2="420.783"
     y2="295.494"
     id="line3439" /><line
     x1="420.783"
     y1="295.494"
     x2="145.708"
     y2="265.872"
     id="line3441"
     stroke-width="2.5581"
     stroke="#010101"
     fill="none" /><circle
     fill="#010101"
     cx="364.618"
     cy="396.609"
     r="7.994"
     id="circle3443" /><line
     fill="none"
     stroke="#010101"
     stroke-width="2.5581"
     x1="314.481"
     y1="257.878"
     x2="364.616"
     y2="396.609"
     id="line3445" /><line
     fill="none"
     stroke="#010101"
     stroke-width="2.5581"
     x1="364.616"
     y1="396.609"
     x2="215.495"
     y2="322.126"
     id="line3447" /><line
     x1="56.074"
     y1="165.137"
     x2="145.708"
     y2="265.872"
     id="line3449"
     stroke-width="2.5581"
     stroke="#010101"
     fill="none" /><line
     fill="none"
     stroke="#010101"
     stroke-width="2.5581"
     x1="56.074"
     y1="165.137"
     x2="131.656"
     y2="136.577"
     id="line3451" /><text
     xml:space="preserve"
     style="font-size:40px;font-style:normal;font-weight:normal;line-height:125%;letter-spacing:0px;word-spacing:0px;fill:#ffffff;fill-opacity:1;stroke:none;font-family:Sans"
     x="271.53137"
     y="57.614098"
     id="text3471"
     sodipodi:linespacing="125%"><tspan
       sodipodi:role="line"
       id="tspan3473"
       x="271.53137"
       y="57.614098" /></text>
<text
     xml:space="preserve"
     style="font-size:40px;font-style:normal;font-weight:normal;line-height:125%;letter-spacing:0px;word-spacing:0px;fill:#000000;fill-opacity:1;stroke:none;font-family:Sans"
     id="text4243"
     sodipodi:linespacing="125%"
     transform="translate(17.596657,-9.1111217)"><textPath
       xlink:href="#path4247"
       id="textPath4252"
       style="font-size:24px;fill:#ffffff;fill-opacity:1"></textPath></text>
<path
     style="fill:none;stroke:none;stroke-width:2.59999989999999981;stroke-linecap:butt;stroke-linejoin:miter;stroke-miterlimit:4;stroke-opacity:1;stroke-dasharray:none"
     d="M 244.58552,55.245232 C 299.95778,52.876366 353.55339,68.274 401.22684,125.71902"
     id="path4247"
     inkscape:connector-curvature="0"
     sodipodi:nodetypes="cc" /><g
     inkscape:groupmode="layer"
     id="layer1"
     inkscape:label="peoplesopen.net" /><path
     style="fill:none;stroke:none;stroke-width:1px;stroke-linecap:butt;stroke-linejoin:miter;stroke-opacity:1"
     d="m 267.16918,46.901173 c 74.32217,7.875379 181.93746,42.158311 186.76717,192.629817"
     id="path4286"
     inkscape:connector-curvature="0"
     sodipodi:nodetypes="cc" /><text
     xml:space="preserve"
     style="font-size:40px;font-style:normal;font-variant:normal;font-weight:normal;font-stretch:normal;text-align:start;line-height:125%;letter-spacing:0px;word-spacing:0px;writing-mode:lr-tb;text-anchor:start;fill:#000000;fill-opacity:1;stroke:#ffffff;stroke-width:0;stroke-miterlimit:4;stroke-opacity:1;stroke-dasharray:none;font-family:Maven Pro;-inkscape-font-specification:Maven Pro"
     id="text4288"
     sodipodi:linespacing="125%"
     transform="matrix(0.99422171,-0.10734605,0.10734605,0.99422171,-25.302615,30.751894)"><textPath
       xlink:href="#path4008"
       id="textPath4099"
       style="font-size:40px;font-style:normal;font-variant:normal;font-weight:normal;font-stretch:normal;text-align:start;line-height:125%;writing-mode:lr-tb;text-anchor:start;fill:#ffffff;fill-opacity:1;stroke:#ffffff;stroke-opacity:1;font-family:Maven Pro;-inkscape-font-specification:Maven Pro">peoplesopen.net</textPath></text>
<path
     style="fill:none;stroke:none;stroke-width:1px;stroke-linecap:butt;stroke-linejoin:miter;stroke-opacity:1"
     d="m 274.89621,50.138193 c 36.80412,2.421324 82.92678,27.829496 117.0173,64.849937 34.09052,37.02045 54.14889,85.65317 48.3033,150.96007"
     id="path4008"
     inkscape:connector-curvature="0"
     sodipodi:nodetypes="csc" /></svg>