<svg width="512" height="387" viewBox="0 0 512 387" fill="none" xmlns="http://www.w3.org/2000/svg">
<rect width="512" height="387" fill="white"/>
<path d="M62.5 23.476C63.236 23.476 63.804 23.816 64.204 24.496C64.612 25.176 64.816 26.112 64.816 27.304C64.816 28.528 64.616 29.472 64.216 30.136C63.816 30.8 63.244 31.132 62.5 31.132C61.756 31.132 61.184 30.8 60.784 30.136C60.384 29.472 60.184 28.528 60.184 27.304C60.184 26.112 60.384 25.176 60.784 24.496C61.192 23.816 61.764 23.476 62.5 23.476ZM62.5 24.208C62.044 24.208 61.688 24.488 61.432 25.048C61.176 25.6 61.048 26.352 61.048 27.304C61.048 27.824 61.084 28.284 61.156 28.684L63.7 25.396C63.58 25.012 63.416 24.72 63.208 24.52C63.008 24.312 62.772 24.208 62.5 24.208ZM62.5 30.4C62.956 30.4 63.312 30.132 63.568 29.596C63.824 29.06 63.952 28.296 63.952 27.304C63.952 26.84 63.924 26.44 63.868 26.104L61.324 29.344C61.58 30.048 61.972 30.4 62.5 30.4ZM72.352 26.824H76.672V27.628H72.352V26.824ZM85.36 31C86.056 28.72 86.816 26.492 87.64 24.316H84.448V23.524H88.684V23.992C87.7 26.472 86.908 28.808 86.308 31H85.36Z" fill="black"/>
<path d="M179.5 31.12C179.044 31.12 178.64 31.032 178.288 30.856C177.944 30.68 177.68 30.44 177.496 30.136C177.312 29.832 177.22 29.492 177.22 29.116C177.22 28.684 177.356 28.28 177.628 27.904C177.9 27.528 178.264 27.236 178.72 27.028C178.376 26.852 178.1 26.608 177.892 26.296C177.684 25.976 177.58 25.636 177.58 25.276C177.58 24.74 177.752 24.3 178.096 23.956C178.44 23.604 178.928 23.428 179.56 23.428C180.216 23.428 180.708 23.596 181.036 23.932C181.372 24.26 181.54 24.684 181.54 25.204C181.54 25.564 181.432 25.908 181.216 26.236C181 26.556 180.712 26.812 180.352 27.004C180.784 27.204 181.132 27.492 181.396 27.868C181.66 28.236 181.792 28.636 181.792 29.068C181.792 29.452 181.696 29.8 181.504 30.112C181.32 30.424 181.052 30.672 180.7 30.856C180.356 31.032 179.956 31.12 179.5 31.12ZM179.704 26.704C180 26.536 180.244 26.32 180.436 26.056C180.628 25.784 180.724 25.508 180.724 25.228C180.724 24.924 180.62 24.668 180.412 24.46C180.204 24.244 179.912 24.136 179.536 24.136C179.16 24.136 178.872 24.24 178.672 24.448C178.48 24.648 178.384 24.896 178.384 25.192C178.384 25.528 178.492 25.804 178.708 26.02C178.924 26.236 179.256 26.464 179.704 26.704ZM179.524 30.364C179.972 30.364 180.32 30.244 180.568 30.004C180.816 29.756 180.94 29.444 180.94 29.068C180.94 28.7 180.796 28.364 180.508 28.06C180.22 27.748 179.832 27.516 179.344 27.364C178.976 27.516 178.672 27.744 178.432 28.048C178.2 28.352 178.084 28.68 178.084 29.032C178.084 29.408 178.212 29.724 178.468 29.98C178.732 30.236 179.084 30.364 179.524 30.364ZM189.352 26.824H193.672V27.628H189.352V26.824ZM203.26 24.556L201.748 25L201.556 24.532L203.512 23.512H204.1V31H203.26V24.556ZM209.488 31.132C209.032 31.132 208.608 31.032 208.216 30.832C207.832 30.632 207.516 30.348 207.268 29.98L208.036 29.404L208.084 29.464C208.076 29.536 208.084 29.604 208.108 29.668C208.132 29.724 208.188 29.796 208.276 29.884C208.436 30.06 208.616 30.192 208.816 30.28C209.016 30.36 209.256 30.4 209.536 30.4C209.792 30.4 210.032 30.328 210.256 30.184C210.48 30.032 210.656 29.824 210.784 29.56C210.92 29.288 210.988 28.972 210.988 28.612C210.988 28.068 210.84 27.636 210.544 27.316C210.256 26.996 209.892 26.836 209.452 26.836C209.196 26.836 208.944 26.9 208.696 27.028C208.448 27.148 208.232 27.32 208.048 27.544L207.52 27.328L207.772 23.524H211.564V24.28H208.48L208.36 26.428C208.752 26.236 209.16 26.14 209.584 26.14C210.016 26.14 210.4 26.244 210.736 26.452C211.08 26.652 211.348 26.944 211.54 27.328C211.74 27.704 211.84 28.144 211.84 28.648C211.84 29.152 211.736 29.592 211.528 29.968C211.328 30.344 211.048 30.632 210.688 30.832C210.336 31.032 209.936 31.132 209.488 31.132Z" fill="black"/>
<path d="M299.26 24.556L297.748 25L297.556 24.532L299.512 23.512H300.1V31H299.26V24.556ZM305.632 31.12C304.896 31.12 304.324 30.808 303.916 30.184C303.508 29.552 303.304 28.688 303.304 27.592C303.304 26.712 303.412 25.96 303.628 25.336C303.844 24.712 304.148 24.24 304.54 23.92C304.94 23.6 305.408 23.44 305.944 23.44C306.568 23.44 307.116 23.668 307.588 24.124L306.976 24.82L306.916 24.76C306.908 24.68 306.888 24.612 306.856 24.556C306.832 24.5 306.768 24.436 306.664 24.364C306.488 24.244 306.256 24.184 305.968 24.184C305.704 24.184 305.436 24.268 305.164 24.436C304.892 24.596 304.652 24.892 304.444 25.324C304.244 25.748 304.14 26.332 304.132 27.076C304.3 26.796 304.524 26.576 304.804 26.416C305.092 26.256 305.396 26.176 305.716 26.176C306.092 26.176 306.436 26.28 306.748 26.488C307.06 26.688 307.308 26.976 307.492 27.352C307.676 27.72 307.768 28.144 307.768 28.624C307.768 29.112 307.672 29.544 307.48 29.92C307.296 30.296 307.04 30.592 306.712 30.808C306.384 31.016 306.024 31.12 305.632 31.12ZM305.668 30.376C306.028 30.376 306.332 30.224 306.58 29.92C306.828 29.608 306.952 29.18 306.952 28.636C306.952 28.26 306.888 27.944 306.76 27.688C306.632 27.424 306.468 27.228 306.268 27.1C306.068 26.972 305.86 26.908 305.644 26.908C305.364 26.908 305.092 27.004 304.828 27.196C304.564 27.38 304.348 27.62 304.18 27.916C304.164 28.044 304.156 28.148 304.156 28.228C304.156 28.58 304.216 28.92 304.336 29.248C304.464 29.576 304.644 29.848 304.876 30.064C305.108 30.272 305.372 30.376 305.668 30.376ZM315.352 26.824H319.672V27.628H315.352V26.824ZM327.376 30.328L328.348 29.344C328.996 28.696 329.48 28.188 329.8 27.82C330.128 27.452 330.388 27.088 330.58 26.728C330.772 26.36 330.868 25.98 330.868 25.588C330.868 25.1 330.752 24.748 330.52 24.532C330.288 24.316 329.98 24.208 329.596 24.208C328.996 24.208 328.496 24.46 328.096 24.964C327.992 25.092 327.94 25.204 327.94 25.3C327.94 25.348 327.944 25.384 327.952 25.408L327.904 25.468L327.808 25.408L327.196 24.928C327.436 24.464 327.764 24.108 328.18 23.86C328.596 23.604 329.064 23.476 329.584 23.476C330.224 23.476 330.74 23.668 331.132 24.052C331.532 24.436 331.732 24.956 331.732 25.612C331.732 26.044 331.628 26.464 331.42 26.872C331.212 27.28 330.944 27.668 330.616 28.036C330.296 28.404 329.848 28.872 329.272 29.44L328.456 30.268H331.24C331.368 30.268 331.46 30.26 331.516 30.244C331.58 30.228 331.636 30.196 331.684 30.148H331.768V31H327.376V30.328ZM335.38 31.132C334.98 31.132 334.6 31.06 334.24 30.916C333.888 30.772 333.584 30.56 333.328 30.28L333.88 29.62L333.964 29.524L334.024 29.584C334.032 29.664 334.048 29.736 334.072 29.8C334.096 29.856 334.152 29.924 334.24 30.004C334.392 30.132 334.552 30.232 334.72 30.304C334.896 30.376 335.104 30.412 335.344 30.412C335.808 30.412 336.16 30.276 336.4 30.004C336.64 29.732 336.76 29.368 336.76 28.912C336.76 28.416 336.608 28.044 336.304 27.796C336.008 27.548 335.588 27.424 335.044 27.424C334.964 27.424 334.836 27.432 334.66 27.448V26.776C335.372 26.776 335.856 26.644 336.112 26.38C336.376 26.116 336.508 25.756 336.508 25.3C336.508 24.964 336.408 24.696 336.208 24.496C336.016 24.296 335.76 24.196 335.44 24.196C334.92 24.196 334.464 24.38 334.072 24.748L333.568 24.244C334.056 23.732 334.676 23.476 335.428 23.476C336.028 23.476 336.5 23.648 336.844 23.992C337.196 24.328 337.372 24.776 337.372 25.336C337.372 25.744 337.272 26.1 337.072 26.404C336.872 26.708 336.58 26.92 336.196 27.04C336.636 27.184 336.984 27.416 337.24 27.736C337.496 28.056 337.624 28.46 337.624 28.948C337.624 29.348 337.536 29.716 337.36 30.052C337.184 30.38 336.928 30.644 336.592 30.844C336.256 31.036 335.852 31.132 335.38 31.132Z" fill="black"/>
<path d="M420.376 30.328L421.348 29.344C421.996 28.696 422.48 28.188 422.8 27.82C423.128 27.452 423.388 27.088 423.58 26.728C423.772 26.36 423.868 25.98 423.868 25.588C423.868 25.1 423.752 24.748 423.52 24.532C423.288 24.316 422.98 24.208 422.596 24.208C421.996 24.208 421.496 24.46 421.096 24.964C420.992 25.092 420.94 25.204 420.94 25.3C420.94 25.348 420.944 25.384 420.952 25.408L420.904 25.468L420.808 25.408L420.196 24.928C420.436 24.464 420.764 24.108 421.18 23.86C421.596 23.604 422.064 23.476 422.584 23.476C423.224 23.476 423.74 23.668 424.132 24.052C424.532 24.436 424.732 24.956 424.732 25.612C424.732 26.044 424.628 26.464 424.42 26.872C424.212 27.28 423.944 27.668 423.616 28.036C423.296 28.404 422.848 28.872 422.272 29.44L421.456 30.268H424.24C424.368 30.268 424.46 30.26 424.516 30.244C424.58 30.228 424.636 30.196 424.684 30.148H424.768V31H420.376V30.328ZM429.316 29.164H426.076V28.552L429.496 23.512H430.204V28.468H431.164V29.176H430.204V31H429.316V29.164ZM429.316 28.456V25.024L427.048 28.456H429.316ZM438.352 26.824H442.672V27.628H438.352V26.824ZM452.38 31.132C451.98 31.132 451.6 31.06 451.24 30.916C450.888 30.772 450.584 30.56 450.328 30.28L450.88 29.62L450.964 29.524L451.024 29.584C451.032 29.664 451.048 29.736 451.072 29.8C451.096 29.856 451.152 29.924 451.24 30.004C451.392 30.132 451.552 30.232 451.72 30.304C451.896 30.376 452.104 30.412 452.344 30.412C452.808 30.412 453.16 30.276 453.4 30.004C453.64 29.732 453.76 29.368 453.76 28.912C453.76 28.416 453.608 28.044 453.304 27.796C453.008 27.548 452.588 27.424 452.044 27.424C451.964 27.424 451.836 27.432 451.66 27.448V26.776C452.372 26.776 452.856 26.644 453.112 26.38C453.376 26.116 453.508 25.756 453.508 25.3C453.508 24.964 453.408 24.696 453.208 24.496C453.016 24.296 452.76 24.196 452.44 24.196C451.92 24.196 451.464 24.38 451.072 24.748L450.568 24.244C451.056 23.732 451.676 23.476 452.428 23.476C453.028 23.476 453.5 23.648 453.844 23.992C454.196 24.328 454.372 24.776 454.372 25.336C454.372 25.744 454.272 26.1 454.072 26.404C453.872 26.708 453.58 26.92 453.196 27.04C453.636 27.184 453.984 27.416 454.24 27.736C454.496 28.056 454.624 28.46 454.624 28.948C454.624 29.348 454.536 29.716 454.36 30.052C454.184 30.38 453.928 30.644 453.592 30.844C453.256 31.036 452.852 31.132 452.38 31.132ZM458.26 24.556L456.748 25L456.556 24.532L458.512 23.512H459.1V31H458.26V24.556Z" fill="black"/>
<rect width="492" height="321" transform="translate(10 54)" fill="white"/>
<line x1="10" y1="117.5" x2="502" y2="117.5" stroke="black"/>
<line x1="10" y1="181.5" x2="502" y2="181.5" stroke="black"/>
<line x1="10" y1="246.5" x2="502" y2="246.5" stroke="black"/>
<line x1="10" y1="310.5" x2="502" y2="310.5" stroke="black"/>
<line x1="256.5" y1="55" x2="256.5" y2="118" stroke="black"/>
<line x1="256.5" y1="247" x2="256.5" y2="310" stroke="black"/>
<line x1="379.5" y1="247" x2="379.5" y2="310" stroke="black"/>
<line x1="133.5" y1="54" x2="133.5" y2="117" stroke="black"/>
</svg>
