<svg width="512" height="387" viewBox="0 0 512 387" fill="none" xmlns="http://www.w3.org/2000/svg">
<rect width="512" height="387" fill="white"/>
<path d="M62.5 23.476C63.236 23.476 63.804 23.816 64.204 24.496C64.612 25.176 64.816 26.112 64.816 27.304C64.816 28.528 64.616 29.472 64.216 30.136C63.816 30.8 63.244 31.132 62.5 31.132C61.756 31.132 61.184 30.8 60.784 30.136C60.384 29.472 60.184 28.528 60.184 27.304C60.184 26.112 60.384 25.176 60.784 24.496C61.192 23.816 61.764 23.476 62.5 23.476ZM62.5 24.208C62.044 24.208 61.688 24.488 61.432 25.048C61.176 25.6 61.048 26.352 61.048 27.304C61.048 27.824 61.084 28.284 61.156 28.684L63.7 25.396C63.58 25.012 63.416 24.72 63.208 24.52C63.008 24.312 62.772 24.208 62.5 24.208ZM62.5 30.4C62.956 30.4 63.312 30.132 63.568 29.596C63.824 29.06 63.952 28.296 63.952 27.304C63.952 26.84 63.924 26.44 63.868 26.104L61.324 29.344C61.58 30.048 61.972 30.4 62.5 30.4ZM72.352 26.824H76.672V27.628H72.352V26.824ZM85.36 31C86.056 28.72 86.816 26.492 87.64 24.316H84.448V23.524H88.684V23.992C87.7 26.472 86.908 28.808 86.308 31H85.36Z" fill="black"/>
<path d="M179.5 31.12C179.044 31.12 178.64 31.032 178.288 30.856C177.944 30.68 177.68 30.44 177.496 30.136C177.312 29.832 177.22 29.492 177.22 29.116C177.22 28.684 177.356 28.28 177.628 27.904C177.9 27.528 178.264 27.236 178.72 27.028C178.376 26.852 178.1 26.608 177.892 26.296C177.684 25.976 177.58 25.636 177.58 25.276C177.58 24.74 177.752 24.3 178.096 23.956C178.44 23.604 178.928 23.428 179.56 23.428C180.216 23.428 180.708 23.596 181.036 23.932C181.372 24.26 181.54 24.684 181.54 25.204C181.54 25.564 181.432 25.908 181.216 26.236C181 26.556 180.712 26.812 180.352 27.004C180.784 27.204 181.132 27.492 181.396 27.868C181.66 28.236 181.792 28.636 181.792 29.068C181.792 29.452 181.696 29.8 181.504 30.112C181.32 30.424 181.052 30.672 180.7 30.856C180.356 31.032 179.956 31.12 179.5 31.12ZM179.704 26.704C180 26.536 180.244 26.32 180.436 26.056C180.628 25.784 180.724 25.508 180.724 25.228C180.724 24.924 180.62 24.668 180.412 24.46C180.204 24.244 179.912 24.136 179.536 24.136C179.16 24.136 178.872 24.24 178.672 24.448C178.48 24.648 178.384 24.896 178.384 25.192C178.384 25.528 178.492 25.804 178.708 26.02C178.924 26.236 179.256 26.464 179.704 26.704ZM179.524 30.364C179.972 30.364 180.32 30.244 180.568 30.004C180.816 29.756 180.94 29.444 180.94 29.068C180.94 28.7 180.796 28.364 180.508 28.06C180.22 27.748 179.832 27.516 179.344 27.364C178.976 27.516 178.672 27.744 178.432 28.048C178.2 28.352 178.084 28.68 178.084 29.032C178.084 29.408 178.212 29.724 178.468 29.98C178.732 30.236 179.084 30.364 179.524 30.364ZM189.352 26.824H193.672V27.628H189.352V26.824ZM203.26 24.556L201.748 25L201.556 24.532L203.512 23.512H204.1V31H203.26V24.556ZM209.488 31.132C209.032 31.132 208.608 31.032 208.216 30.832C207.832 30.632 207.516 30.348 207.268 29.98L208.036 29.404L208.084 29.464C208.076 29.536 208.084 29.604 208.108 29.668C208.132 29.724 208.188 29.796 208.276 29.884C208.436 30.06 208.616 30.192 208.816 30.28C209.016 30.36 209.256 30.4 209.536 30.4C209.792 30.4 210.032 30.328 210.256 30.184C210.48 30.032 210.656 29.824 210.784 29.56C210.92 29.288 210.988 28.972 210.988 28.612C210.988 28.068 210.84 27.636 210.544 27.316C210.256 26.996 209.892 26.836 209.452 26.836C209.196 26.836 208.944 26.9 208.696 27.028C208.448 27.148 208.232 27.32 208.048 27.544L207.52 27.328L207.772 23.524H211.564V24.28H208.48L208.36 26.428C208.752 26.236 209.16 26.14 209.584 26.14C210.016 26.14 210.4 26.244 210.736 26.452C211.08 26.652 211.348 26.944 211.54 27.328C211.74 27.704 211.84 28.144 211.84 28.648C211.84 29.152 211.736 29.592 211.528 29.968C211.328 30.344 211.048 30.632 210.688 30.832C210.336 31.032 209.936 31.132 209.488 31.132Z" fill="black"/>
<path d="M299.26 24.556L297.748 25L297.556 24.532L299.512 23.512H300.1V31H299.26V24.556ZM305.632 31.12C304.896 31.12 304.324 30.808 303.916 30.184C303.508 29.552 303.304 28.688 303.304 27.592C303.304 26.712 303.412 25.96 303.628 25.336C303.844 24.712 304.148 24.24 304.54 23.92C304.94 23.6 305.408 23.44 305.944 23.44C306.568 23.44 307.116 23.668 307.588 24.124L306.976 24.82L306.916 24.76C306.908 24.68 306.888 24.612 306.856 24.556C306.832 24.5 306.768 24.436 306.664 24.364C306.488 24.244 306.256 24.184 305.968 24.184C305.704 24.184 305.436 24.268 305.164 24.436C304.892 24.596 304.652 24.892 304.444 25.324C304.244 25.748 304.14 26.332 304.132 27.076C304.3 26.796 304.524 26.576 304.804 26.416C305.092 26.256 305.396 26.176 305.716 26.176C306.092 26.176 306.436 26.28 306.748 26.488C307.06 26.688 307.308 26.976 307.492 27.352C307.676 27.72 307.768 28.144 307.768 28.624C307.768 29.112 307.672 29.544 307.48 29.92C307.296 30.296 307.04 30.592 306.712 30.808C306.384 31.016 306.024 31.12 305.632 31.12ZM305.668 30.376C306.028 30.376 306.332 30.224 306.58 29.92C306.828 29.608 306.952 29.18 306.952 28.636C306.952 28.26 306.888 27.944 306.76 27.688C306.632 27.424 306.468 27.228 306.268 27.1C306.068 26.972 305.86 26.908 305.644 26.908C305.364 26.908 305.092 27.004 304.828 27.196C304.564 27.38 304.348 27.62 304.18 27.916C304.164 28.044 304.156 28.148 304.156 28.228C304.156 28.58 304.216 28.92 304.336 29.248C304.464 29.576 304.644 29.848 304.876 30.064C305.108 30.272 305.372 30.376 305.668 30.376ZM315.352 26.824H319.672V27.628H315.352V26.824ZM327.376 30.328L328.348 29.344C328.996 28.696 329.48 28.188 329.8 27.82C330.128 27.452 330.388 27.088 330.58 26.728C330.772 26.36 330.868 25.98 330.868 25.588C330.868 25.1 330.752 24.748 330.52 24.532C330.288 24.316 329.98 24.208 329.596 24.208C328.996 24.208 328.496 24.46 328.096 24.964C327.992 25.092 327.94 25.204 327.94 25.3C327.94 25.348 327.944 25.384 327.952 25.408L327.904 25.468L327.808 25.408L327.196 24.928C327.436 24.464 327.764 24.108 328.18 23.86C328.596 23.604 329.064 23.476 329.584 23.476C330.224 23.476 330.74 23.668 331.132 24.052C331.532 24.436 331.732 24.956 331.732 25.612C331.732 26.044 331.628 26.464 331.42 26.872C331.212 27.28 330.944 27.668 330.616 28.036C330.296 28.404 329.848 28.872 329.272 29.44L328.456 30.268H331.24C331.368 30.268 331.46 30.26 331.516 30.244C331.58 30.228 331.636 30.196 331.684 30.148H331.768V31H327.376V30.328ZM335.38 31.132C334.98 31.132 334.6 31.06 334.24 30.916C333.888 30.772 333.584 30.56 333.328 30.28L333.88 29.62L333.964 29.524L334.024 29.584C334.032 29.664 334.048 29.736 334.072 29.8C334.096 29.856 334.152 29.924 334.24 30.004C334.392 30.132 334.552 30.232 334.72 30.304C334.896 30.376 335.104 30.412 335.344 30.412C335.808 30.412 336.16 30.276 336.4 30.004C336.64 29.732 336.76 29.368 336.76 28.912C336.76 28.416 336.608 28.044 336.304 27.796C336.008 27.548 335.588 27.424 335.044 27.424C334.964 27.424 334.836 27.432 334.66 27.448V26.776C335.372 26.776 335.856 26.644 336.112 26.38C336.376 26.116 336.508 25.756 336.508 25.3C336.508 24.964 336.408 24.696 336.208 24.496C336.016 24.296 335.76 24.196 335.44 24.196C334.92 24.196 334.464 24.38 334.072 24.748L333.568 24.244C334.056 23.732 334.676 23.476 335.428 23.476C336.028 23.476 336.5 23.648 336.844 23.992C337.196 24.328 337.372 24.776 337.372 25.336C337.372 25.744 337.272 26.1 337.072 26.404C336.872 26.708 336.58 26.92 336.196 27.04C336.636 27.184 336.984 27.416 337.24 27.736C337.496 28.056 337.624 28.46 337.624 28.948C337.624 29.348 337.536 29.716 337.36 30.052C337.184 30.38 336.928 30.644 336.592 30.844C336.256 31.036 335.852 31.132 335.38 31.132Z" fill="black"/>
<path d="M420.376 30.328L421.348 29.344C421.996 28.696 422.48 28.188 422.8 27.82C423.128 27.452 423.388 27.088 423.58 26.728C423.772 26.36 423.868 25.98 423.868 25.588C423.868 25.1 423.752 24.748 423.52 24.532C423.288 24.316 422.98 24.208 422.596 24.208C421.996 24.208 421.496 24.46 421.096 24.964C420.992 25.092 420.94 25.204 420.94 25.3C420.94 25.348 420.944 25.384 420.952 25.408L420.904 25.468L420.808 25.408L420.196 24.928C420.436 24.464 420.764 24.108 421.18 23.86C421.596 23.604 422.064 23.476 422.584 23.476C423.224 23.476 423.74 23.668 424.132 24.052C424.532 24.436 424.732 24.956 424.732 25.612C424.732 26.044 424.628 26.464 424.42 26.872C424.212 27.28 423.944 27.668 423.616 28.036C423.296 28.404 422.848 28.872 422.272 29.44L421.456 30.268H424.24C424.368 30.268 424.46 30.26 424.516 30.244C424.58 30.228 424.636 30.196 424.684 30.148H424.768V31H420.376V30.328ZM429.316 29.164H426.076V28.552L429.496 23.512H430.204V28.468H431.164V29.176H430.204V31H429.316V29.164ZM429.316 28.456V25.024L427.048 28.456H429.316ZM438.352 26.824H442.672V27.628H438.352V26.824ZM452.38 31.132C451.98 31.132 451.6 31.06 451.24 30.916C450.888 30.772 450.584 30.56 450.328 30.28L450.88 29.62L450.964 29.524L451.024 29.584C451.032 29.664 451.048 29.736 451.072 29.8C451.096 29.856 451.152 29.924 451.24 30.004C451.392 30.132 451.552 30.232 451.72 30.304C451.896 30.376 452.104 30.412 452.344 30.412C452.808 30.412 453.16 30.276 453.4 30.004C453.64 29.732 453.76 29.368 453.76 28.912C453.76 28.416 453.608 28.044 453.304 27.796C453.008 27.548 452.588 27.424 452.044 27.424C451.964 27.424 451.836 27.432 451.66 27.448V26.776C452.372 26.776 452.856 26.644 453.112 26.38C453.376 26.116 453.508 25.756 453.508 25.3C453.508 24.964 453.408 24.696 453.208 24.496C453.016 24.296 452.76 24.196 452.44 24.196C451.92 24.196 451.464 24.38 451.072 24.748L450.568 24.244C451.056 23.732 451.676 23.476 452.428 23.476C453.028 23.476 453.5 23.648 453.844 23.992C454.196 24.328 454.372 24.776 454.372 25.336C454.372 25.744 454.272 26.1 454.072 26.404C453.872 26.708 453.58 26.92 453.196 27.04C453.636 27.184 453.984 27.416 454.24 27.736C454.496 28.056 454.624 28.46 454.624 28.948C454.624 29.348 454.536 29.716 454.36 30.052C454.184 30.38 453.928 30.644 453.592 30.844C453.256 31.036 452.852 31.132 452.38 31.132ZM458.26 24.556L456.748 25L456.556 24.532L458.512 23.512H459.1V31H458.26V24.556Z" fill="black"/>
<rect width="492" height="321" transform="translate(10 50)" fill="white"/>
<line x1="27" y1="275.5" x2="483" y2="275.5" stroke="black"/>
<line x1="27" y1="340.5" x2="483" y2="340.5" stroke="black"/>
<path d="M17 181H82V207H17V181Z" fill="white"/>
<path d="M96 181H127V207H96V181Z" fill="white"/>
<path d="M37 215H106V241H37V215Z" fill="white"/>
<path d="M146 215H199V241H146V215Z" fill="white"/>
<path d="M16 178H129V241H16V178Z" fill="white"/>
<path d="M140 177H250V240H140V177Z" fill="white"/>
<path d="M263 178H492V241H263V178Z" fill="white"/>
<rect x="72" y="309" width="369" height="64" fill="white"/>
<path d="M83.7 324.85H90.95C93.5167 324.85 95.55 325.2 97.05 325.9C98.55 326.567 99.85 327.633 100.95 329.1C102.983 331.833 104 335.667 104 340.6C103.8 345.633 102.633 349.483 100.5 352.15C98.3667 354.783 94.9833 356.083 90.35 356.05H83.7V324.85ZM90.2 353.3C97.0667 353.3 100.5 349.133 100.5 340.8C100.467 336.567 99.6833 333.35 98.15 331.15C96.6167 328.917 94.15 327.8 90.75 327.8H87V353.3H90.2ZM108.95 324.8H128.05V327.9H112.25V338.15H125.3V341.35H112.25V352.9H127.9V356H108.95V324.8ZM143.35 356.5C139.317 356.5 136.067 355.183 133.6 352.55L135.4 349.4L135.6 348.95L135.95 349.15C135.983 349.25 136.017 349.417 136.05 349.65C136.117 349.883 136.2 350.117 136.3 350.35C136.433 350.55 136.633 350.75 136.9 350.95C138.767 352.55 141.083 353.35 143.85 353.35C145.683 353.35 147.217 352.833 148.45 351.8C149.683 350.767 150.3 349.5 150.3 348C150.3 347.033 150.1 346.233 149.7 345.6C149.333 344.933 148.65 344.283 147.65 343.65C146.65 343.017 145.15 342.267 143.15 341.4C140.083 340.2 137.883 338.833 136.55 337.3C135.25 335.767 134.6 334.05 134.6 332.15C134.6 329.817 135.45 327.95 137.15 326.55C138.85 325.15 141.167 324.45 144.1 324.45C145.8 324.45 147.383 324.8 148.85 325.5C150.35 326.167 151.65 327.117 152.75 328.35L150.5 331.35L150.2 331.15C150.2 331.083 150.167 330.933 150.1 330.7C150.067 330.467 149.983 330.25 149.85 330.05C149.717 329.817 149.533 329.583 149.3 329.35C148.533 328.617 147.7 328.1 146.8 327.8C145.9 327.5 144.817 327.35 143.55 327.35C141.95 327.35 140.65 327.8 139.65 328.7C138.683 329.567 138.2 330.633 138.2 331.9C138.2 332.867 138.4 333.717 138.8 334.45C139.233 335.15 140 335.85 141.1 336.55C142.2 337.217 143.8 337.967 145.9 338.8C148.867 340.033 150.917 341.3 152.05 342.6C153.183 343.9 153.75 345.533 153.75 347.5C153.75 349.033 153.367 350.483 152.6 351.85C151.867 353.217 150.717 354.333 149.15 355.2C147.583 356.067 145.65 356.5 143.35 356.5ZM166.4 327.95H157.55V324.8H179.15V327.95H169.95V356H166.4V327.95ZM185.05 353.05H191.2V327.8H185.4V324.85H200.85V327.8H194.7V353.1H201.15V356H185.05V353.05ZM208.5 324.85H211.9L225 347.95V324.85H228.8V325.2C228.6 325.4 228.467 325.617 228.4 325.85C228.367 326.083 228.35 326.483 228.35 327.05V356H225.6L211.85 331.5V356H208.5V324.85ZM248.45 346.9H238.4L235.25 356H231.8L243.3 324.3H243.7L255.2 356H251.6L248.45 346.9ZM247.55 344.2L243.45 332.3L239.35 344.2H247.55ZM266.4 327.95H257.55V324.8H279.15V327.95H269.95V356H266.4V327.95ZM285.05 353.05H291.2V327.8H285.4V324.85H300.85V327.8H294.7V353.1H301.15V356H285.05V353.05ZM318.5 356.55C314.933 356.55 312.183 355.167 310.25 352.4C308.317 349.633 307.35 345.7 307.35 340.6C307.35 335.633 308.317 331.733 310.25 328.9C312.217 326.067 314.967 324.65 318.5 324.65C322.033 324.65 324.767 326.067 326.7 328.9C328.667 331.733 329.65 335.633 329.65 340.6C329.65 345.7 328.683 349.633 326.75 352.4C324.817 355.167 322.067 356.55 318.5 356.55ZM318.5 353.5C320.9 353.5 322.75 352.383 324.05 350.15C325.383 347.917 326.05 344.733 326.05 340.6C326.05 336.633 325.383 333.5 324.05 331.2C322.717 328.867 320.867 327.7 318.5 327.7C316.133 327.7 314.283 328.867 312.95 331.2C311.617 333.5 310.95 336.633 310.95 340.6C310.95 344.733 311.6 347.917 312.9 350.15C314.233 352.383 316.1 353.5 318.5 353.5ZM333.5 324.85H336.9L350 347.95V324.85H353.8V325.2C353.6 325.4 353.467 325.617 353.4 325.85C353.367 326.083 353.35 326.483 353.35 327.05V356H350.6L336.85 331.5V356H333.5V324.85ZM385.05 353.05H391.2V327.8H385.4V324.85H400.85V327.8H394.7V353.1H401.15V356H385.05V353.05ZM408.95 324.85H418.95C422.25 324.85 424.717 325.667 426.35 327.3C427.983 328.933 428.8 331.05 428.8 333.65C428.8 336.217 428 338.3 426.4 339.9C424.8 341.467 422.4 342.25 419.2 342.25H412.55V356H408.95V324.85ZM418.8 339.15C421 339.15 422.617 338.683 423.65 337.75C424.683 336.783 425.2 335.45 425.2 333.75C425.2 332.117 424.667 330.783 423.6 329.75C422.533 328.683 420.95 328.15 418.85 328.15H412.55V339.15H418.8Z" fill="black"/>
<rect x="133" y="243" width="246" height="64" fill="white"/>
<path d="M155.85 292.5C151.817 292.5 148.567 291.183 146.1 288.55L147.9 285.4L148.1 284.95L148.45 285.15C148.483 285.25 148.517 285.417 148.55 285.65C148.617 285.883 148.7 286.117 148.8 286.35C148.933 286.55 149.133 286.75 149.4 286.95C151.267 288.55 153.583 289.35 156.35 289.35C158.183 289.35 159.717 288.833 160.95 287.8C162.183 286.767 162.8 285.5 162.8 284C162.8 283.033 162.6 282.233 162.2 281.6C161.833 280.933 161.15 280.283 160.15 279.65C159.15 279.017 157.65 278.267 155.65 277.4C152.583 276.2 150.383 274.833 149.05 273.3C147.75 271.767 147.1 270.05 147.1 268.15C147.1 265.817 147.95 263.95 149.65 262.55C151.35 261.15 153.667 260.45 156.6 260.45C158.3 260.45 159.883 260.8 161.35 261.5C162.85 262.167 164.15 263.117 165.25 264.35L163 267.35L162.7 267.15C162.7 267.083 162.667 266.933 162.6 266.7C162.567 266.467 162.483 266.25 162.35 266.05C162.217 265.817 162.033 265.583 161.8 265.35C161.033 264.617 160.2 264.1 159.3 263.8C158.4 263.5 157.317 263.35 156.05 263.35C154.45 263.35 153.15 263.8 152.15 264.7C151.183 265.567 150.7 266.633 150.7 267.9C150.7 268.867 150.9 269.717 151.3 270.45C151.733 271.15 152.5 271.85 153.6 272.55C154.7 273.217 156.3 273.967 158.4 274.8C161.367 276.033 163.417 277.3 164.55 278.6C165.683 279.9 166.25 281.533 166.25 283.5C166.25 285.033 165.867 286.483 165.1 287.85C164.367 289.217 163.217 290.333 161.65 291.2C160.083 292.067 158.15 292.5 155.85 292.5ZM181 292.55C177.433 292.55 174.683 291.167 172.75 288.4C170.817 285.633 169.85 281.7 169.85 276.6C169.85 271.633 170.817 267.733 172.75 264.9C174.717 262.067 177.467 260.65 181 260.65C184.533 260.65 187.267 262.067 189.2 264.9C191.167 267.733 192.15 271.633 192.15 276.6C192.15 281.7 191.183 285.633 189.25 288.4C187.317 291.167 184.567 292.55 181 292.55ZM181 289.5C183.4 289.5 185.25 288.383 186.55 286.15C187.883 283.917 188.55 280.733 188.55 276.6C188.55 272.633 187.883 269.5 186.55 267.2C185.217 264.867 183.367 263.7 181 263.7C178.633 263.7 176.783 264.867 175.45 267.2C174.117 269.5 173.45 272.633 173.45 276.6C173.45 280.733 174.1 283.917 175.4 286.15C176.733 288.383 178.6 289.5 181 289.5ZM206.05 292.55C202.75 292.55 200.25 291.567 198.55 289.6C196.85 287.633 196 284.85 196 281.25V260.85H199.9V261.2C199.7 261.4 199.567 261.617 199.5 261.85C199.467 262.083 199.45 262.483 199.45 263.05V281.3C199.45 283.967 199.967 286.017 201 287.45C202.033 288.883 203.733 289.6 206.1 289.6C208.5 289.6 210.217 288.883 211.25 287.45C212.317 286.017 212.85 283.917 212.85 281.15V260.85H216.2V281.1C216.2 284.933 215.3 287.8 213.5 289.7C211.733 291.6 209.25 292.55 206.05 292.55ZM221.3 260.85H230.5C234.033 260.85 236.633 261.633 238.3 263.2C240 264.767 240.85 266.95 240.85 269.75C240.85 271.583 240.25 273.317 239.05 274.95C237.883 276.583 236.367 277.633 234.5 278.1L241.7 292H237.8L230.9 278.25H224.85V292H221.3V260.85ZM230.9 275.15C233.067 275.15 234.667 274.683 235.7 273.75C236.733 272.783 237.25 271.45 237.25 269.75C237.25 268.083 236.717 266.733 235.65 265.7C234.617 264.667 233.033 264.15 230.9 264.15H224.85V275.15H230.9ZM257.75 292.5C255.417 292.5 253.333 291.933 251.5 290.8C249.7 289.633 248.25 287.867 247.15 285.5C246.083 283.133 245.55 280.167 245.55 276.6C245.55 272.767 246.133 269.667 247.3 267.3C248.467 264.9 249.95 263.183 251.75 262.15C253.55 261.117 255.483 260.6 257.55 260.6C259.75 260.6 261.65 261.15 263.25 262.25C264.883 263.35 266.117 264.85 266.95 266.75L263.95 268.15L263.5 268.35L263.35 268L263.45 267.6C263.45 267.267 263.217 266.8 262.75 266.2C261.983 265.167 261.167 264.45 260.3 264.05C259.433 263.617 258.483 263.4 257.45 263.4C254.817 263.4 252.733 264.55 251.2 266.85C249.7 269.117 248.95 272.283 248.95 276.35C248.95 278.917 249.333 281.2 250.1 283.2C250.867 285.2 251.9 286.75 253.2 287.85C254.533 288.95 256 289.5 257.6 289.5C258.833 289.5 260.017 289.167 261.15 288.5C262.283 287.8 263.2 286.867 263.9 285.7L266.5 287.4C265.467 289.1 264.25 290.383 262.85 291.25C261.45 292.083 259.75 292.5 257.75 292.5ZM271.45 260.8H290.55V263.9H274.75V274.15H287.8V277.35H274.75V288.9H290.4V292H271.45V260.8ZM322.55 289.05H328.7V263.8H322.9V260.85H338.35V263.8H332.2V289.1H338.65V292H322.55V289.05ZM346.45 260.85H356.45C359.75 260.85 362.217 261.667 363.85 263.3C365.483 264.933 366.3 267.05 366.3 269.65C366.3 272.217 365.5 274.3 363.9 275.9C362.3 277.467 359.9 278.25 356.7 278.25H350.05V292H346.45V260.85ZM356.3 275.15C358.5 275.15 360.117 274.683 361.15 273.75C362.183 272.783 362.7 271.45 362.7 269.75C362.7 268.117 362.167 266.783 361.1 265.75C360.033 264.683 358.45 264.15 356.35 264.15H350.05V275.15H356.3Z" fill="black"/>
<path d="M39.5 75.52H40.96L44.16 85.1L47.18 75.54H48.56L44.38 88.08H43.74L39.5 75.52ZM54.44 88.2C53.08 88.2 51.9933 87.7867 51.18 86.96C50.38 86.1333 49.98 84.9667 49.98 83.46C49.98 82.46 50.1667 81.6 50.54 80.88C50.9133 80.1467 51.4133 79.5933 52.04 79.22C52.68 78.8333 53.3933 78.64 54.18 78.64C55.2867 78.64 56.18 79.0067 56.86 79.74C57.5533 80.4733 57.9 81.5533 57.9 82.98C57.9 83.1267 57.8867 83.3467 57.86 83.64H51.36C51.4133 84.76 51.7267 85.6067 52.3 86.18C52.8733 86.7533 53.6 87.04 54.48 87.04C55.44 87.04 56.2267 86.7 56.84 86.02L57.64 86.8C56.8667 87.7333 55.8 88.2 54.44 88.2ZM56.44 82.52C56.44 81.6667 56.22 80.9933 55.78 80.5C55.3533 79.9933 54.7867 79.74 54.08 79.74C53.4133 79.74 52.8333 79.9733 52.34 80.44C51.8467 80.9067 51.54 81.6 51.42 82.52H56.44ZM65.74 78.64C66.7133 78.64 67.52 78.9733 68.16 79.64L67.52 80.76L67.44 80.94L67.3 80.86C67.26 80.7133 67.2133 80.6 67.16 80.52C67.1067 80.4267 66.9933 80.3267 66.82 80.22C66.4733 79.9933 66.08 79.88 65.64 79.88C65.16 79.88 64.7067 80 64.28 80.24C63.8533 80.48 63.5067 80.8467 63.24 81.34C62.9733 81.82 62.84 82.4267 62.84 83.16V88.02H61.38V78.86H62.88L62.84 80.54C63.0933 79.94 63.48 79.4733 64 79.14C64.5333 78.8067 65.1133 78.64 65.74 78.64ZM74.02 88.2C72.4733 88.2 71.18 87.72 70.14 86.76L70.94 85.4L71.06 85.22L71.18 85.3C71.18 85.3267 71.1867 85.3867 71.2 85.48C71.2267 85.5733 71.2667 85.6667 71.32 85.76C71.3733 85.8533 71.4467 85.9467 71.54 86.04C71.8467 86.3467 72.1933 86.5867 72.58 86.76C72.98 86.92 73.4733 87 74.06 87C74.78 87 75.3467 86.8733 75.76 86.62C76.1733 86.3533 76.38 85.9933 76.38 85.54C76.38 85.1533 76.2133 84.8333 75.88 84.58C75.5467 84.3267 74.9467 84.06 74.08 83.78C71.7867 83.1267 70.64 82.18 70.64 80.94C70.64 80.2333 70.9267 79.6733 71.5 79.26C72.0867 78.8467 72.92 78.64 74 78.64C74.8267 78.64 75.52 78.76 76.08 79C76.6533 79.2267 77.1733 79.5867 77.64 80.08L76.82 81.08L76.68 81.24L76.58 81.14C76.5667 80.9933 76.5333 80.8733 76.48 80.78C76.44 80.6867 76.3467 80.58 76.2 80.46C75.8933 80.22 75.5467 80.04 75.16 79.92C74.7867 79.7867 74.4133 79.72 74.04 79.72C73.4667 79.72 72.9933 79.82 72.62 80.02C72.26 80.22 72.08 80.5 72.08 80.86C72.08 81.1933 72.2667 81.5 72.64 81.78C73.0133 82.06 73.6867 82.34 74.66 82.62C75.8067 82.9667 76.6133 83.3467 77.08 83.76C77.56 84.16 77.8 84.6867 77.8 85.34C77.8 86.1667 77.4733 86.8533 76.82 87.4C76.18 87.9333 75.2467 88.2 74.02 88.2ZM81 86.84H83.34V80.02H81.12V78.86H84.78V86.84H86.92V88H81V86.84ZM83.98 76.94C83.7 76.94 83.46 76.84 83.26 76.64C83.06 76.44 82.96 76.2 82.96 75.92C82.96 75.6267 83.0533 75.38 83.24 75.18C83.44 74.98 83.6867 74.88 83.98 74.88C84.26 74.88 84.5 74.9867 84.7 75.2C84.9133 75.4 85.02 75.64 85.02 75.92C85.02 76.2 84.9133 76.44 84.7 76.64C84.5 76.84 84.26 76.94 83.98 76.94ZM94 88.16C93.1867 88.16 92.46 87.96 91.82 87.56C91.18 87.16 90.68 86.6 90.32 85.88C89.96 85.16 89.78 84.34 89.78 83.42C89.78 82.5 89.96 81.68 90.32 80.96C90.68 80.24 91.18 79.68 91.82 79.28C92.46 78.8667 93.1867 78.66 94 78.66C94.8133 78.66 95.54 78.8667 96.18 79.28C96.82 79.68 97.32 80.24 97.68 80.96C98.04 81.68 98.22 82.5 98.22 83.42C98.22 84.34 98.04 85.16 97.68 85.88C97.32 86.6 96.82 87.16 96.18 87.56C95.54 87.96 94.8133 88.16 94 88.16ZM94 86.96C94.52 86.96 94.98 86.8067 95.38 86.5C95.7933 86.1933 96.1133 85.7733 96.34 85.24C96.58 84.6933 96.7 84.08 96.7 83.4C96.7 82.36 96.4467 81.5133 95.94 80.86C95.4333 80.1933 94.7867 79.86 94 79.86C93.2133 79.86 92.5667 80.1933 92.06 80.86C91.5533 81.5133 91.3 82.36 91.3 83.4C91.3 84.08 91.4133 84.6933 91.64 85.24C91.88 85.7733 92.2 86.1933 92.6 86.5C93.0133 86.8067 93.48 86.96 94 86.96ZM100.44 78.86H101.84V80.48C102.2 79.92 102.653 79.4733 103.2 79.14C103.747 78.8067 104.327 78.64 104.94 78.64C105.753 78.64 106.4 78.9533 106.88 79.58C107.373 80.1933 107.62 81.1533 107.62 82.46V88H106.22V82.5C106.22 81.5933 106.067 80.9333 105.76 80.52C105.453 80.1067 105.047 79.9 104.54 79.9C104.127 79.9 103.707 80.02 103.28 80.26C102.867 80.5 102.52 80.84 102.24 81.28C101.973 81.7067 101.84 82.1933 101.84 82.74V88H100.44V78.86Z" fill="black"/>
<path d="M213.408 75.414H208.806V73.776H220.038V75.414H215.254V90H213.408V75.414ZM227.5 90.208C226.443 90.208 225.498 89.948 224.666 89.428C223.834 88.908 223.184 88.18 222.716 87.244C222.248 86.308 222.014 85.242 222.014 84.046C222.014 82.85 222.248 81.784 222.716 80.848C223.184 79.912 223.834 79.184 224.666 78.664C225.498 78.1267 226.443 77.858 227.5 77.858C228.557 77.858 229.502 78.1267 230.334 78.664C231.166 79.184 231.816 79.912 232.284 80.848C232.752 81.784 232.986 82.85 232.986 84.046C232.986 85.242 232.752 86.308 232.284 87.244C231.816 88.18 231.166 88.908 230.334 89.428C229.502 89.948 228.557 90.208 227.5 90.208ZM227.5 88.648C228.176 88.648 228.774 88.4487 229.294 88.05C229.831 87.6513 230.247 87.1053 230.542 86.412C230.854 85.7013 231.01 84.904 231.01 84.02C231.01 82.668 230.681 81.5673 230.022 80.718C229.363 79.8513 228.523 79.418 227.5 79.418C226.477 79.418 225.637 79.8513 224.978 80.718C224.319 81.5673 223.99 82.668 223.99 84.02C223.99 84.904 224.137 85.7013 224.432 86.412C224.744 87.1053 225.16 87.6513 225.68 88.05C226.217 88.4487 226.824 88.648 227.5 88.648ZM240.422 90.26C238.325 90.26 236.635 89.5753 235.352 88.206L236.288 86.568L236.392 86.334L236.574 86.438C236.591 86.49 236.609 86.5767 236.626 86.698C236.661 86.8193 236.704 86.9407 236.756 87.062C236.825 87.166 236.929 87.27 237.068 87.374C238.039 88.206 239.243 88.622 240.682 88.622C241.635 88.622 242.433 88.3533 243.074 87.816C243.715 87.2787 244.036 86.62 244.036 85.84C244.036 85.3373 243.932 84.9213 243.724 84.592C243.533 84.2453 243.178 83.9073 242.658 83.578C242.138 83.2487 241.358 82.8587 240.318 82.408C238.723 81.784 237.579 81.0733 236.886 80.276C236.21 79.4787 235.872 78.586 235.872 77.598C235.872 76.3847 236.314 75.414 237.198 74.686C238.082 73.958 239.287 73.594 240.812 73.594C241.696 73.594 242.519 73.776 243.282 74.14C244.062 74.4867 244.738 74.9807 245.31 75.622L244.14 77.182L243.984 77.078C243.984 77.0433 243.967 76.9653 243.932 76.844C243.915 76.7227 243.871 76.61 243.802 76.506C243.733 76.3847 243.637 76.2633 243.516 76.142C243.117 75.7607 242.684 75.492 242.216 75.336C241.748 75.18 241.185 75.102 240.526 75.102C239.694 75.102 239.018 75.336 238.498 75.804C237.995 76.2547 237.744 76.8093 237.744 77.468C237.744 77.9707 237.848 78.4127 238.056 78.794C238.281 79.158 238.68 79.522 239.252 79.886C239.824 80.2327 240.656 80.6227 241.748 81.056C243.291 81.6973 244.357 82.356 244.946 83.032C245.535 83.708 245.83 84.5573 245.83 85.58C245.83 86.3773 245.631 87.1313 245.232 87.842C244.851 88.5527 244.253 89.1333 243.438 89.584C242.623 90.0347 241.618 90.26 240.422 90.26Z" fill="black"/>
<path d="M295.24 75.17H289.93V73.28H302.89V75.17H297.37V92H295.24V75.17ZM311.5 92.33C309.36 92.33 307.71 91.5 306.55 89.84C305.39 88.18 304.81 85.82 304.81 82.76C304.81 79.78 305.39 77.44 306.55 75.74C307.73 74.04 309.38 73.19 311.5 73.19C313.62 73.19 315.26 74.04 316.42 75.74C317.6 77.44 318.19 79.78 318.19 82.76C318.19 85.82 317.61 88.18 316.45 89.84C315.29 91.5 313.64 92.33 311.5 92.33ZM311.5 90.5C312.94 90.5 314.05 89.83 314.83 88.49C315.63 87.15 316.03 85.24 316.03 82.76C316.03 80.38 315.63 78.5 314.83 77.12C314.03 75.72 312.92 75.02 311.5 75.02C310.08 75.02 308.97 75.72 308.17 77.12C307.37 78.5 306.97 80.38 306.97 82.76C306.97 85.24 307.36 87.15 308.14 88.49C308.94 89.83 310.06 90.5 311.5 90.5ZM325.24 75.17H319.93V73.28H332.89V75.17H327.37V92H325.24V75.17ZM344.47 86.54H338.44L336.55 92H334.48L341.38 72.98H341.62L348.52 92H346.36L344.47 86.54ZM343.93 84.92L341.47 77.78L339.01 84.92H343.93ZM350.98 73.31H353.44V73.52C353.32 73.64 353.24 73.77 353.2 73.91C353.18 74.05 353.17 74.29 353.17 74.63V90.2H362.17V92H350.98V73.31ZM380.98 73.31H383.44V73.52C383.32 73.64 383.24 73.77 383.2 73.91C383.18 74.05 383.17 74.29 383.17 74.63V90.2H392.17V92H380.98V73.31ZM395.77 73.28H407.23V75.14H397.75V81.29H405.58V83.21H397.75V90.14H407.14V92H395.77V73.28ZM410.5 73.31H412.54L420.4 87.17V73.31H422.68V73.52C422.56 73.64 422.48 73.77 422.44 73.91C422.42 74.05 422.41 74.29 422.41 74.63V92H420.76L412.51 77.3V92H410.5V73.31ZM432.31 92.3C430.83 92.3 429.54 91.91 428.44 91.13C427.36 90.35 426.53 89.25 425.95 87.83C425.37 86.41 425.08 84.76 425.08 82.88C425.06 80.4 425.42 78.44 426.16 77C426.9 75.54 427.81 74.53 428.89 73.97C429.97 73.39 431.06 73.1 432.16 73.1C433.28 73.1 434.36 73.39 435.4 73.97C436.44 74.55 437.22 75.31 437.74 76.25L436.27 77.42L436.03 77.63L435.91 77.45C435.93 77.29 435.9 77.14 435.82 77C435.76 76.86 435.62 76.67 435.4 76.43C434.92 75.91 434.43 75.54 433.93 75.32C433.45 75.08 432.87 74.96 432.19 74.96C430.69 74.96 429.47 75.54 428.53 76.7C427.61 77.86 427.15 79.77 427.15 82.43C427.15 84.99 427.6 86.97 428.5 88.37C429.42 89.75 430.69 90.44 432.31 90.44C432.91 90.44 433.54 90.35 434.2 90.17C434.86 89.97 435.41 89.68 435.85 89.3V84.86H432.46V83.03H437.8V90.35C436.02 91.65 434.19 92.3 432.31 92.3ZM445.24 75.17H439.93V73.28H452.89V75.17H447.37V92H445.24V75.17ZM455.5 73.31H457.96V73.52C457.84 73.64 457.76 73.77 457.72 73.91C457.7 74.05 457.69 74.29 457.69 74.63V81.29H465.01V73.31H467.47V73.52C467.35 73.64 467.27 73.77 467.23 73.91C467.21 74.05 467.2 74.29 467.2 74.63V92H464.98V83.09H457.69V92H455.5V73.31Z" fill="black"/>
<path d="M24.74 156.64H29.66V136.44H25.02V134.08H37.38V136.44H32.46V156.68H37.62V159H24.74V156.64ZM43.66 134.08H49.46C51.5133 134.08 53.14 134.36 54.34 134.92C55.54 135.453 56.58 136.307 57.46 137.48C59.0867 139.667 59.9 142.733 59.9 146.68C59.74 150.707 58.8067 153.787 57.1 155.92C55.3933 158.027 52.6867 159.067 48.98 159.04H43.66V134.08ZM48.86 156.84C54.3533 156.84 57.1 153.507 57.1 146.84C57.0733 143.453 56.4467 140.88 55.22 139.12C53.9933 137.333 52.02 136.44 49.3 136.44H46.3V156.84H48.86ZM63.86 134.04H79.14V136.52H66.5V144.72H76.94V147.28H66.5V156.52H79.02V159H63.86V134.04ZM83.5 134.08H86.22L96.7 152.56V134.08H99.74V134.36C99.58 134.52 99.4733 134.693 99.42 134.88C99.3933 135.067 99.38 135.387 99.38 135.84V159H97.18L86.18 139.4V159H83.5V134.08ZM109.82 136.56H102.74V134.04H120.02V136.56H112.66V159H109.82V136.56ZM124.74 156.64H129.66V136.44H125.02V134.08H137.38V136.44H132.46V156.68H137.62V159H124.74V156.64ZM144.62 134.04H158.98V136.48H147.42V144.32H156.74V146.76H147.42V159H144.62V134.04ZM164.74 156.64H169.66V136.44H165.02V134.08H177.38V136.44H172.46V156.68H177.62V159H164.74V156.64ZM192.9 159.4C191.033 159.4 189.367 158.947 187.9 158.04C186.46 157.107 185.3 155.693 184.42 153.8C183.567 151.907 183.14 149.533 183.14 146.68C183.14 143.613 183.607 141.133 184.54 139.24C185.473 137.32 186.66 135.947 188.1 135.12C189.54 134.293 191.087 133.88 192.74 133.88C194.5 133.88 196.02 134.32 197.3 135.2C198.607 136.08 199.593 137.28 200.26 138.8L197.86 139.92L197.5 140.08L197.38 139.8L197.46 139.48C197.46 139.213 197.273 138.84 196.9 138.36C196.287 137.533 195.633 136.96 194.94 136.64C194.247 136.293 193.487 136.12 192.66 136.12C190.553 136.12 188.887 137.04 187.66 138.88C186.46 140.693 185.86 143.227 185.86 146.48C185.86 148.533 186.167 150.36 186.78 151.96C187.393 153.56 188.22 154.8 189.26 155.68C190.327 156.56 191.5 157 192.78 157C193.767 157 194.713 156.733 195.62 156.2C196.527 155.64 197.26 154.893 197.82 153.96L199.9 155.32C199.073 156.68 198.1 157.707 196.98 158.4C195.86 159.067 194.5 159.4 192.9 159.4ZM215.46 151.72H207.42L204.9 159H202.14L211.34 133.64H211.66L220.86 159H217.98L215.46 151.72ZM214.74 149.56L211.46 140.04L208.18 149.56H214.74ZM229.82 136.56H222.74V134.04H240.02V136.56H232.66V159H229.82V136.56ZM244.74 156.64H249.66V136.44H245.02V134.08H257.38V136.44H252.46V156.68H257.62V159H244.74V156.64ZM271.5 159.44C268.647 159.44 266.447 158.333 264.9 156.12C263.353 153.907 262.58 150.76 262.58 146.68C262.58 142.707 263.353 139.587 264.9 137.32C266.473 135.053 268.673 133.92 271.5 133.92C274.327 133.92 276.513 135.053 278.06 137.32C279.633 139.587 280.42 142.707 280.42 146.68C280.42 150.76 279.647 153.907 278.1 156.12C276.553 158.333 274.353 159.44 271.5 159.44ZM271.5 157C273.42 157 274.9 156.107 275.94 154.32C277.007 152.533 277.54 149.987 277.54 146.68C277.54 143.507 277.007 141 275.94 139.16C274.873 137.293 273.393 136.36 271.5 136.36C269.607 136.36 268.127 137.293 267.06 139.16C265.993 141 265.46 143.507 265.46 146.68C265.46 149.987 265.98 152.533 267.02 154.32C268.087 156.107 269.58 157 271.5 157ZM283.5 134.08H286.22L296.7 152.56V134.08H299.74V134.36C299.58 134.52 299.473 134.693 299.42 134.88C299.393 135.067 299.38 135.387 299.38 135.84V159H297.18L286.18 139.4V159H283.5V134.08Z" fill="black"/>
<path d="M328.936 142.512H333.244V143.244H329.776V145.596H332.572V146.328H329.776V150H328.936V142.512ZM334.792 142.524H335.776V142.608C335.728 142.656 335.696 142.708 335.68 142.764C335.672 142.82 335.668 142.916 335.668 143.052V149.28H339.268V150H334.792V142.524ZM344.188 147.816H341.776L341.02 150H340.192L342.952 142.392H343.048L345.808 150H344.944L344.188 147.816ZM343.972 147.168L342.988 144.312L342.004 147.168H343.972ZM349.324 150.12C348.732 150.12 348.216 149.964 347.776 149.652C347.344 149.34 347.012 148.9 346.78 148.332C346.548 147.764 346.432 147.104 346.432 146.352C346.424 145.36 346.568 144.576 346.864 144C347.16 143.416 347.524 143.012 347.956 142.788C348.388 142.556 348.824 142.44 349.264 142.44C349.712 142.44 350.144 142.556 350.56 142.788C350.976 143.02 351.288 143.324 351.496 143.7L350.908 144.168L350.812 144.252L350.764 144.18C350.772 144.116 350.76 144.056 350.728 144C350.704 143.944 350.648 143.868 350.56 143.772C350.368 143.564 350.172 143.416 349.972 143.328C349.78 143.232 349.548 143.184 349.276 143.184C348.676 143.184 348.188 143.416 347.812 143.88C347.444 144.344 347.26 145.108 347.26 146.172C347.26 147.196 347.44 147.988 347.8 148.548C348.168 149.1 348.676 149.376 349.324 149.376C349.564 149.376 349.816 149.34 350.08 149.268C350.344 149.188 350.564 149.072 350.74 148.92V147.144H349.384V146.412H351.52V149.34C350.808 149.86 350.076 150.12 349.324 150.12ZM354.964 150.12C353.996 150.12 353.216 149.804 352.624 149.172L353.056 148.416L353.104 148.308L353.188 148.356C353.196 148.38 353.204 148.42 353.212 148.476C353.228 148.532 353.248 148.588 353.272 148.644C353.304 148.692 353.352 148.74 353.416 148.788C353.864 149.172 354.42 149.364 355.084 149.364C355.524 149.364 355.892 149.24 356.188 148.992C356.484 148.744 356.632 148.44 356.632 148.08C356.632 147.848 356.584 147.656 356.488 147.504C356.4 147.344 356.236 147.188 355.996 147.036C355.756 146.884 355.396 146.704 354.916 146.496C354.18 146.208 353.652 145.88 353.332 145.512C353.02 145.144 352.864 144.732 352.864 144.276C352.864 143.716 353.068 143.268 353.476 142.932C353.884 142.596 354.44 142.428 355.144 142.428C355.552 142.428 355.932 142.512 356.284 142.68C356.644 142.84 356.956 143.068 357.22 143.364L356.68 144.084L356.608 144.036C356.608 144.02 356.6 143.984 356.584 143.928C356.576 143.872 356.556 143.82 356.524 143.772C356.492 143.716 356.448 143.66 356.392 143.604C356.208 143.428 356.008 143.304 355.792 143.232C355.576 143.16 355.316 143.124 355.012 143.124C354.628 143.124 354.316 143.232 354.076 143.448C353.844 143.656 353.728 143.912 353.728 144.216C353.728 144.448 353.776 144.652 353.872 144.828C353.976 144.996 354.16 145.164 354.424 145.332C354.688 145.492 355.072 145.672 355.576 145.872C356.288 146.168 356.78 146.472 357.052 146.784C357.324 147.096 357.46 147.488 357.46 147.96C357.46 148.328 357.368 148.676 357.184 149.004C357.008 149.332 356.732 149.6 356.356 149.808C355.98 150.016 355.516 150.12 354.964 150.12Z" fill="black"/>
<path d="M393 156.33C390.86 156.33 389.21 155.5 388.05 153.84C386.89 152.18 386.31 149.82 386.31 146.76C386.31 143.78 386.89 141.44 388.05 139.74C389.23 138.04 390.88 137.19 393 137.19C395.12 137.19 396.76 138.04 397.92 139.74C399.1 141.44 399.69 143.78 399.69 146.76C399.69 149.82 399.11 152.18 397.95 153.84C396.79 155.5 395.14 156.33 393 156.33ZM393 154.5C394.44 154.5 395.55 153.83 396.33 152.49C397.13 151.15 397.53 149.24 397.53 146.76C397.53 144.38 397.13 142.5 396.33 141.12C395.53 139.72 394.42 139.02 393 139.02C391.58 139.02 390.47 139.72 389.67 141.12C388.87 142.5 388.47 144.38 388.47 146.76C388.47 149.24 388.86 151.15 389.64 152.49C390.44 153.83 391.56 154.5 393 154.5ZM402.84 137.28H413.61V139.11H404.94V144.99H411.93V146.82H404.94V156H402.84V137.28ZM417.84 137.28H428.61V139.11H419.94V144.99H426.93V146.82H419.94V156H417.84V137.28ZM437.91 156.3C435.49 156.3 433.54 155.51 432.06 153.93L433.14 152.04L433.26 151.77L433.47 151.89C433.49 151.95 433.51 152.05 433.53 152.19C433.57 152.33 433.62 152.47 433.68 152.61C433.76 152.73 433.88 152.85 434.04 152.97C435.16 153.93 436.55 154.41 438.21 154.41C439.31 154.41 440.23 154.1 440.97 153.48C441.71 152.86 442.08 152.1 442.08 151.2C442.08 150.62 441.96 150.14 441.72 149.76C441.5 149.36 441.09 148.97 440.49 148.59C439.89 148.21 438.99 147.76 437.79 147.24C435.95 146.52 434.63 145.7 433.83 144.78C433.05 143.86 432.66 142.83 432.66 141.69C432.66 140.29 433.17 139.17 434.19 138.33C435.21 137.49 436.6 137.07 438.36 137.07C439.38 137.07 440.33 137.28 441.21 137.7C442.11 138.1 442.89 138.67 443.55 139.41L442.2 141.21L442.02 141.09C442.02 141.05 442 140.96 441.96 140.82C441.94 140.68 441.89 140.55 441.81 140.43C441.73 140.29 441.62 140.15 441.48 140.01C441.02 139.57 440.52 139.26 439.98 139.08C439.44 138.9 438.79 138.81 438.03 138.81C437.07 138.81 436.29 139.08 435.69 139.62C435.11 140.14 434.82 140.78 434.82 141.54C434.82 142.12 434.94 142.63 435.18 143.07C435.44 143.49 435.9 143.91 436.56 144.33C437.22 144.73 438.18 145.18 439.44 145.68C441.22 146.42 442.45 147.18 443.13 147.96C443.81 148.74 444.15 149.72 444.15 150.9C444.15 151.82 443.92 152.69 443.46 153.51C443.02 154.33 442.33 155 441.39 155.52C440.45 156.04 439.29 156.3 437.91 156.3ZM447.27 137.28H458.73V139.14H449.25V145.29H457.08V147.21H449.25V154.14H458.64V156H447.27V137.28ZM466.74 139.17H461.43V137.28H474.39V139.17H468.87V156H466.74V139.17Z" fill="black"/>
<path d="M55.24 203.17H49.93V201.28H62.89V203.17H57.37V220H55.24V203.17ZM70.24 203.17H64.93V201.28H77.89V203.17H72.37V220H70.24V203.17ZM80.98 201.31H83.44V201.52C83.32 201.64 83.24 201.77 83.2 201.91C83.18 202.05 83.17 202.29 83.17 202.63V218.2H92.17V220H80.98V201.31Z" fill="black"/>
<path d="M142.27 201.31H148.27C150.25 201.31 151.73 201.8 152.71 202.78C153.69 203.76 154.18 205.03 154.18 206.59C154.18 208.13 153.7 209.38 152.74 210.34C151.78 211.28 150.34 211.75 148.42 211.75H144.43V220H142.27V201.31ZM148.18 209.89C149.5 209.89 150.47 209.61 151.09 209.05C151.71 208.47 152.02 207.67 152.02 206.65C152.02 205.67 151.7 204.87 151.06 204.25C150.42 203.61 149.47 203.29 148.21 203.29H144.43V209.89H148.18ZM157.18 201.31H162.7C164.82 201.31 166.38 201.78 167.38 202.72C168.4 203.66 168.91 204.97 168.91 206.65C168.91 207.75 168.55 208.79 167.83 209.77C167.13 210.75 166.22 211.38 165.1 211.66L169.42 220H167.08L162.94 211.75H159.31V220H157.18V201.31ZM162.94 209.89C164.24 209.89 165.2 209.61 165.82 209.05C166.44 208.47 166.75 207.67 166.75 206.65C166.75 205.65 166.43 204.84 165.79 204.22C165.17 203.6 164.22 203.29 162.94 203.29H159.31V209.89H162.94ZM178 220.33C175.86 220.33 174.21 219.5 173.05 217.84C171.89 216.18 171.31 213.82 171.31 210.76C171.31 207.78 171.89 205.44 173.05 203.74C174.23 202.04 175.88 201.19 178 201.19C180.12 201.19 181.76 202.04 182.92 203.74C184.1 205.44 184.69 207.78 184.69 210.76C184.69 213.82 184.11 216.18 182.95 217.84C181.79 219.5 180.14 220.33 178 220.33ZM178 218.5C179.44 218.5 180.55 217.83 181.33 216.49C182.13 215.15 182.53 213.24 182.53 210.76C182.53 208.38 182.13 206.5 181.33 205.12C180.53 203.72 179.42 203.02 178 203.02C176.58 203.02 175.47 203.72 174.67 205.12C173.87 206.5 173.47 208.38 173.47 210.76C173.47 213.24 173.86 215.15 174.64 216.49C175.44 217.83 176.56 218.5 178 218.5ZM191.74 203.17H186.43V201.28H199.39V203.17H193.87V220H191.74V203.17ZM208 220.33C205.86 220.33 204.21 219.5 203.05 217.84C201.89 216.18 201.31 213.82 201.31 210.76C201.31 207.78 201.89 205.44 203.05 203.74C204.23 202.04 205.88 201.19 208 201.19C210.12 201.19 211.76 202.04 212.92 203.74C214.1 205.44 214.69 207.78 214.69 210.76C214.69 213.82 214.11 216.18 212.95 217.84C211.79 219.5 210.14 220.33 208 220.33ZM208 218.5C209.44 218.5 210.55 217.83 211.33 216.49C212.13 215.15 212.53 213.24 212.53 210.76C212.53 208.38 212.13 206.5 211.33 205.12C210.53 203.72 209.42 203.02 208 203.02C206.58 203.02 205.47 203.72 204.67 205.12C203.87 206.5 203.47 208.38 203.47 210.76C203.47 213.24 203.86 215.15 204.64 216.49C205.44 217.83 206.56 218.5 208 218.5ZM224.05 220.3C222.65 220.3 221.4 219.96 220.3 219.28C219.22 218.58 218.35 217.52 217.69 216.1C217.05 214.68 216.73 212.9 216.73 210.76C216.73 208.46 217.08 206.6 217.78 205.18C218.48 203.74 219.37 202.71 220.45 202.09C221.53 201.47 222.69 201.16 223.93 201.16C225.25 201.16 226.39 201.49 227.35 202.15C228.33 202.81 229.07 203.71 229.57 204.85L227.77 205.69L227.5 205.81L227.41 205.6L227.47 205.36C227.47 205.16 227.33 204.88 227.05 204.52C226.59 203.9 226.1 203.47 225.58 203.23C225.06 202.97 224.49 202.84 223.87 202.84C222.29 202.84 221.04 203.53 220.12 204.91C219.22 206.27 218.77 208.17 218.77 210.61C218.77 212.15 219 213.52 219.46 214.72C219.92 215.92 220.54 216.85 221.32 217.51C222.12 218.17 223 218.5 223.96 218.5C224.7 218.5 225.41 218.3 226.09 217.9C226.77 217.48 227.32 216.92 227.74 216.22L229.3 217.24C228.68 218.26 227.95 219.03 227.11 219.55C226.27 220.05 225.25 220.3 224.05 220.3ZM238 220.33C235.86 220.33 234.21 219.5 233.05 217.84C231.89 216.18 231.31 213.82 231.31 210.76C231.31 207.78 231.89 205.44 233.05 203.74C234.23 202.04 235.88 201.19 238 201.19C240.12 201.19 241.76 202.04 242.92 203.74C244.1 205.44 244.69 207.78 244.69 210.76C244.69 213.82 244.11 216.18 242.95 217.84C241.79 219.5 240.14 220.33 238 220.33ZM238 218.5C239.44 218.5 240.55 217.83 241.33 216.49C242.13 215.15 242.53 213.24 242.53 210.76C242.53 208.38 242.13 206.5 241.33 205.12C240.53 203.72 239.42 203.02 238 203.02C236.58 203.02 235.47 203.72 234.67 205.12C233.87 206.5 233.47 208.38 233.47 210.76C233.47 213.24 233.86 215.15 234.64 216.49C235.44 217.83 236.56 218.5 238 218.5ZM247.48 201.31H249.94V201.52C249.82 201.64 249.74 201.77 249.7 201.91C249.68 202.05 249.67 202.29 249.67 202.63V218.2H258.67V220H247.48V201.31Z" fill="black"/>
<path d="M310.4 223.4C308.533 223.4 306.867 222.947 305.4 222.04C303.96 221.107 302.8 219.693 301.92 217.8C301.067 215.907 300.64 213.533 300.64 210.68C300.64 207.613 301.107 205.133 302.04 203.24C302.973 201.32 304.16 199.947 305.6 199.12C307.04 198.293 308.587 197.88 310.24 197.88C312 197.88 313.52 198.32 314.8 199.2C316.107 200.08 317.093 201.28 317.76 202.8L315.36 203.92L315 204.08L314.88 203.8L314.96 203.48C314.96 203.213 314.773 202.84 314.4 202.36C313.787 201.533 313.133 200.96 312.44 200.64C311.747 200.293 310.987 200.12 310.16 200.12C308.053 200.12 306.387 201.04 305.16 202.88C303.96 204.693 303.36 207.227 303.36 210.48C303.36 212.533 303.667 214.36 304.28 215.96C304.893 217.56 305.72 218.8 306.76 219.68C307.827 220.56 309 221 310.28 221C311.267 221 312.213 220.733 313.12 220.2C314.027 219.64 314.76 218.893 315.32 217.96L317.4 219.32C316.573 220.68 315.6 221.707 314.48 222.4C313.36 223.067 312 223.4 310.4 223.4ZM321 198.08H324.28V198.36C324.12 198.52 324.013 198.693 323.96 198.88C323.933 199.067 323.92 199.387 323.92 199.84V208.72H333.68V198.08H336.96V198.36C336.8 198.52 336.693 198.693 336.64 198.88C336.613 199.067 336.6 199.387 336.6 199.84V223H333.64V211.12H323.92V223H321V198.08ZM341.36 198.04H356.64V200.52H344V208.72H354.44V211.28H344V220.52H356.52V223H341.36V198.04ZM370.4 223.4C368.533 223.4 366.867 222.947 365.4 222.04C363.96 221.107 362.8 219.693 361.92 217.8C361.067 215.907 360.64 213.533 360.64 210.68C360.64 207.613 361.107 205.133 362.04 203.24C362.973 201.32 364.16 199.947 365.6 199.12C367.04 198.293 368.587 197.88 370.24 197.88C372 197.88 373.52 198.32 374.8 199.2C376.107 200.08 377.093 201.28 377.76 202.8L375.36 203.92L375 204.08L374.88 203.8L374.96 203.48C374.96 203.213 374.773 202.84 374.4 202.36C373.787 201.533 373.133 200.96 372.44 200.64C371.747 200.293 370.987 200.12 370.16 200.12C368.053 200.12 366.387 201.04 365.16 202.88C363.96 204.693 363.36 207.227 363.36 210.48C363.36 212.533 363.667 214.36 364.28 215.96C364.893 217.56 365.72 218.8 366.76 219.68C367.827 220.56 369 221 370.28 221C371.267 221 372.213 220.733 373.12 220.2C374.027 219.64 374.76 218.893 375.32 217.96L377.4 219.32C376.573 220.68 375.6 221.707 374.48 222.4C373.36 223.067 372 223.4 370.4 223.4ZM385.64 210.52L383.68 212.68V223H380.68V198.08H384.04V198.36C383.88 198.52 383.773 198.693 383.72 198.88C383.693 199.067 383.68 199.387 383.68 199.84V209.56L394.08 197.88C394.747 198.013 395.44 198.08 396.16 198.08H397.2L387.76 208.84L397.84 223L394.24 223.16L385.64 210.52ZM408.88 223.4C405.653 223.4 403.053 222.347 401.08 220.24L402.52 217.72L402.68 217.36L402.96 217.52C402.987 217.6 403.013 217.733 403.04 217.92C403.093 218.107 403.16 218.293 403.24 218.48C403.347 218.64 403.507 218.8 403.72 218.96C405.213 220.24 407.067 220.88 409.28 220.88C410.747 220.88 411.973 220.467 412.96 219.64C413.947 218.813 414.44 217.8 414.44 216.6C414.44 215.827 414.28 215.187 413.96 214.68C413.667 214.147 413.12 213.627 412.32 213.12C411.52 212.613 410.32 212.013 408.72 211.32C406.267 210.36 404.507 209.267 403.44 208.04C402.4 206.813 401.88 205.44 401.88 203.92C401.88 202.053 402.56 200.56 403.92 199.44C405.28 198.32 407.133 197.76 409.48 197.76C410.84 197.76 412.107 198.04 413.28 198.6C414.48 199.133 415.52 199.893 416.4 200.88L414.6 203.28L414.36 203.12C414.36 203.067 414.333 202.947 414.28 202.76C414.253 202.573 414.187 202.4 414.08 202.24C413.973 202.053 413.827 201.867 413.64 201.68C413.027 201.093 412.36 200.68 411.64 200.44C410.92 200.2 410.053 200.08 409.04 200.08C407.76 200.08 406.72 200.44 405.92 201.16C405.147 201.853 404.76 202.707 404.76 203.72C404.76 204.493 404.92 205.173 405.24 205.76C405.587 206.32 406.2 206.88 407.08 207.44C407.96 207.973 409.24 208.573 410.92 209.24C413.293 210.227 414.933 211.24 415.84 212.28C416.747 213.32 417.2 214.627 417.2 216.2C417.2 217.427 416.893 218.587 416.28 219.68C415.693 220.773 414.773 221.667 413.52 222.36C412.267 223.053 410.72 223.4 408.88 223.4ZM429.04 223.44C426.4 223.44 424.4 222.653 423.04 221.08C421.68 219.507 421 217.28 421 214.4V198.08H424.12V198.36C423.96 198.52 423.853 198.693 423.8 198.88C423.773 199.067 423.76 199.387 423.76 199.84V214.44C423.76 216.573 424.173 218.213 425 219.36C425.827 220.507 427.187 221.08 429.08 221.08C431 221.08 432.373 220.507 433.2 219.36C434.053 218.213 434.48 216.533 434.48 214.32V198.08H437.16V214.28C437.16 217.347 436.44 219.64 435 221.16C433.587 222.68 431.6 223.44 429.04 223.44ZM440.64 198.08H442.84L449 210.28L455.28 198.04H457.4V223H454.76V204.2L449.36 214.24H448.28L443.24 204.32V223H440.64V198.08Z" fill="black"/>
<path d="M146.5 76.54H148.14V76.68C148.06 76.76 148.007 76.8467 147.98 76.94C147.967 77.0333 147.96 77.1933 147.96 77.42V81.86H152.84V76.54H154.48V76.68C154.4 76.76 154.347 76.8467 154.32 76.94C154.307 77.0333 154.3 77.1933 154.3 77.42V89H152.82V83.06H147.96V89H146.5V76.54ZM156.82 76.54H158.46V76.68C158.38 76.76 158.327 76.8467 158.3 76.94C158.287 77.0333 158.28 77.1933 158.28 77.42V87.8H164.28V89H156.82V76.54Z" fill="black"/>
</svg>
