<?xml version="1.0" encoding="UTF-8" standalone="no"?>
<!-- Created with Inkscape (http://www.inkscape.org/) -->

<svg
   xmlns:osb="http://www.openswatchbook.org/uri/2009/osb"
   xmlns:dc="http://purl.org/dc/elements/1.1/"
   xmlns:cc="http://creativecommons.org/ns#"
   xmlns:rdf="http://www.w3.org/1999/02/22-rdf-syntax-ns#"
   xmlns:svg="http://www.w3.org/2000/svg"
   xmlns="http://www.w3.org/2000/svg"
   xmlns:xlink="http://www.w3.org/1999/xlink"
   xmlns:sodipodi="http://sodipodi.sourceforge.net/DTD/sodipodi-0.dtd"
   xmlns:inkscape="http://www.inkscape.org/namespaces/inkscape"
   width="91.175064mm"
   height="43.973457mm"
   viewBox="0 0 91.175065 43.973458"
   version="1.1"
   id="svg8"
   inkscape:version="0.92.3 (2405546, 2018-03-11)"
   sodipodi:docname="Logo Proposal 2.svg">
  <defs
     id="defs2">
    <linearGradient
       id="linearGradient7504"
       inkscape:collect="always">
      <stop
         id="stop7500"
         offset="0"
         style="stop-color:#c8493c;stop-opacity:1" />
      <stop
         id="stop7502"
         offset="1"
         style="stop-color:#691100;stop-opacity:0" />
    </linearGradient>
    <linearGradient
       id="linearGradient7476"
       osb:paint="solid">
      <stop
         style="stop-color:#28ffff;stop-opacity:1;"
         offset="0"
         id="stop7474" />
    </linearGradient>
    <linearGradient
       inkscape:collect="always"
       id="linearGradient4584">
      <stop
         style="stop-color:#3cc8c4;stop-opacity:1"
         offset="0"
         id="stop4580" />
      <stop
         style="stop-color:#00695e;stop-opacity:0"
         offset="1"
         id="stop4582" />
    </linearGradient>
    <radialGradient
       inkscape:collect="always"
       xlink:href="#linearGradient7504"
       id="radialGradient4588"
       cx="44.557167"
       cy="25.63784"
       fx="44.557167"
       fy="25.63784"
       r="11.977122"
       gradientTransform="matrix(-1.2712887,0.10069345,-0.10152116,-1.2817389,103.30565,50.727452)"
       gradientUnits="userSpaceOnUse" />
    <radialGradient
       inkscape:collect="always"
       xlink:href="#linearGradient4584"
       id="radialGradient4600"
       cx="47.501869"
       cy="14.708704"
       fx="47.501869"
       fy="14.708704"
       r="3.3406713"
       gradientTransform="matrix(-0.75865276,0.6514952,-1.0182941,-1.1857825,98.517079,2.2173187)"
       gradientUnits="userSpaceOnUse" />
    <radialGradient
       inkscape:collect="always"
       xlink:href="#linearGradient7504"
       id="radialGradient1103"
       cx="86.618401"
       cy="25.493618"
       fx="86.618401"
       fy="25.493618"
       r="7.9900293"
       gradientTransform="matrix(-0.10660961,0.65751507,-0.92062202,-0.14926983,119.32273,-24.381957)"
       gradientUnits="userSpaceOnUse" />
    <radialGradient
       inkscape:collect="always"
       xlink:href="#linearGradient4584"
       id="radialGradient1137"
       cx="86.664391"
       cy="43.439796"
       fx="86.664391"
       fy="43.439796"
       r="6.992559"
       gradientTransform="matrix(-5.2930661,-0.03120875,0.02066775,-3.5053024,545.87914,193.0129)"
       gradientUnits="userSpaceOnUse" />
    <radialGradient
       inkscape:collect="always"
       xlink:href="#linearGradient4584"
       id="radialGradient1204"
       gradientUnits="userSpaceOnUse"
       gradientTransform="matrix(-0.10660961,0.65751507,-0.92062202,-0.14926983,120.71494,-24.381951)"
       cx="86.618401"
       cy="25.493618"
       fx="86.618401"
       fy="25.493618"
       r="7.9900293" />
  </defs>
  <sodipodi:namedview
     id="base"
     pagecolor="#ffffff"
     bordercolor="#666666"
     borderopacity="1.0"
     inkscape:pageopacity="0.0"
     inkscape:pageshadow="2"
     inkscape:zoom="2"
     inkscape:cx="267.91032"
     inkscape:cy="49.206203"
     inkscape:document-units="mm"
     inkscape:current-layer="layer1"
     showgrid="false"
     inkscape:object-nodes="false"
     inkscape:snap-nodes="false"
     inkscape:window-width="1853"
     inkscape:window-height="1025"
     inkscape:window-x="67"
     inkscape:window-y="27"
     inkscape:window-maximized="1"
     fit-margin-top="2"
     fit-margin-left="2"
     fit-margin-bottom="2"
     fit-margin-right="2" />
  <metadata
     id="metadata5">
    <rdf:RDF>
      <cc:Work
         rdf:about="">
        <dc:format>image/svg+xml</dc:format>
        <dc:type
           rdf:resource="http://purl.org/dc/dcmitype/StillImage" />
        <dc:title></dc:title>
      </cc:Work>
    </rdf:RDF>
  </metadata>
  <g
     inkscape:label="Layer 1"
     inkscape:groupmode="layer"
     id="layer1"
     transform="translate(-16.808094,-20.996467)">
    <text
       xml:space="preserve"
       style="font-style:normal;font-weight:normal;font-size:10.58333302px;line-height:1.25;font-family:sans-serif;letter-spacing:0px;word-spacing:0px;fill:#000000;fill-opacity:1;stroke:none;stroke-width:0.26458332"
       x="18.331844"
       y="61.653122"
       id="text35"><tspan
         sodipodi:role="line"
         id="tspan33"
         x="18.331844"
         y="61.653122"
         style="font-style:normal;font-variant:normal;font-weight:normal;font-stretch:normal;font-size:15.875px;font-family:'Bitstream Charter';-inkscape-font-specification:'Bitstream Charter';fill:#000000;stroke-width:0.26458332">Meshnet</tspan></text>
    <path
       inkscape:connector-curvature="0"
       id="path1111"
       d="m 84.702066,37.991344 v 2.882068 l -0.04725,7.60677 -0.519718,5.953125 -1.41741,5.149926 -1.700893,2.976563 13.985118,0.188987 -1.22842,-4.724702 -0.519719,-3.827007 -0.661458,-6.094868 -0.519719,-8.126487 v -2.740328 l -2.976562,0.614212 -3.732514,0.188988 z"
       style="fill:url(#radialGradient1137);fill-opacity:1.0;stroke:none;stroke-width:0.26458332px;stroke-linecap:butt;stroke-linejoin:miter;stroke-opacity:1" />
    <path
       inkscape:connector-curvature="0"
       id="path290"
       d="m 87.820371,28.400198 -4.204986,3.779762 -3.071056,3.260045 15.355281,1.086681 -3.63802,-3.732515 z"
       style="fill:url(#radialGradient1204);fill-opacity:1.0;stroke:none;stroke-width:0.26499999;stroke-linecap:butt;stroke-linejoin:miter;stroke-miterlimit:4;stroke-dasharray:none;stroke-opacity:1" />
    <path
       sodipodi:nodetypes="cccccccccccccccccccccccc"
       inkscape:connector-curvature="0"
       d="m 80.277616,62.969925 c 0.345863,-0.478848 0.635328,-0.993687 0.924441,-1.507908 0.546843,-0.931756 0.945859,-1.930953 1.278527,-2.955549 0.280898,-0.9334 0.569235,-1.867061 0.783048,-2.818839 0.05188,-0.230968 0.272976,-1.363221 0.31627,-1.583291 0.342066,-1.727461 0.428886,-3.487716 0.486462,-5.243165 0.04152,-1.684563 0.03022,-3.369789 0.02193,-5.054659 -0.0083,-1.23831 -0.0033,-2.479135 -0.100229,-3.714355 -0.03755,-0.400728 -0.08584,-0.800312 -0.131752,-1.200129 l 1.201843,-0.627708 v 0 c 0.03557,0.405963 0.07324,0.811742 0.106053,1.217943 0.08057,1.244891 0.07347,2.49373 0.06911,3.740711 -0.0055,1.6911 -0.01198,3.382335 -0.04931,5.073094 -0.05151,1.757828 -0.122785,3.52188 -0.460285,5.252784 -0.04093,0.214437 -0.258374,1.361442 -0.30679,1.585222 -0.205623,0.950367 -0.487227,1.882306 -0.756018,2.816018 -0.318267,1.024747 -0.695272,2.027542 -1.229955,2.961992 -0.359384,0.662451 -0.02312,0.0488 -0.369163,0.663721 -0.07791,0.138445 -0.206308,0.3811 -0.295695,0.519572 -0.03879,0.06009 -0.08682,0.113848 -0.125836,0.173795 -0.02882,0.04429 -0.05156,0.09226 -0.07733,0.138387 l -1.285309,0.562364 z"
       id="path120"
       style="fill:#000000;fill-opacity:1;stroke:none;stroke-width:0;stroke-miterlimit:4;stroke-dasharray:none" />
    <path
       sodipodi:nodetypes="ccccccccccccccccccc"
       inkscape:connector-curvature="0"
       d="m 92.571881,37.358714 c -0.02767,0.542852 0.0013,1.085716 0.01865,1.628334 0.02633,1.065493 0.06414,2.825717 0.131875,3.889255 0.102135,1.687174 0.235003,3.372038 0.356931,5.057844 0.173172,2.293138 0.408369,4.581006 0.674621,6.865022 0.232826,2.077138 0.127318,1.092074 0.505301,3.147455 0.160097,1.168858 0.487326,2.300481 0.84581,3.420822 0.09293,0.250745 0.39261,0.793182 0.562353,1.052862 -0.198832,0.08059 -0.901915,0.374534 -1.252375,0.525462 v 0 c -0.224685,-0.283387 -0.400401,-0.681243 -0.491427,-0.931626 -0.330817,-1.141198 -0.631883,-2.292755 -0.779709,-3.474445 -0.350313,-2.069319 -0.220762,-1.096458 -0.454564,-3.182245 -0.27186,-2.279933 -0.512101,-4.563531 -0.712237,-6.850946 -0.13779,-1.677014 -0.288536,-3.352766 -0.410483,-5.031031 -0.08158,-1.057093 -0.133838,-2.810988 -0.176455,-3.870467 -0.02783,-0.536607 -0.06266,-1.072621 -0.06693,-1.610082 l 1.248632,-0.63621 z"
       id="path122"
       style="fill:#000000;fill-opacity:1;stroke:none;stroke-width:0;stroke-miterlimit:4;stroke-dasharray:none" />
    <path
       sodipodi:nodetypes="cccccccccccccccccc"
       inkscape:connector-curvature="0"
       d="m 88.270321,27.959759 c -0.270367,0.262611 -0.533485,0.532505 -0.806942,0.791912 -0.329031,0.313727 -0.645403,0.640396 -0.963689,0.964932 -0.295699,0.298896 -0.583131,0.605581 -0.880536,0.902813 -0.230749,0.251879 -1.01281,1.005544 -1.279571,1.217893 -0.23613,0.193534 -0.46696,0.393075 -0.683492,0.608406 -0.03357,0.03468 -0.06714,0.06936 -0.100717,0.104045 l -1.284531,0.535241 v 0 c 0.03361,-0.03539 0.06722,-0.07077 0.100825,-0.10616 0.213728,-0.22123 0.440754,-0.427139 0.678016,-0.622696 0.167164,-0.13876 0.350623,-0.260039 0.505971,-0.412942 0.04344,-0.04275 0.0806,-0.0915 0.122957,-0.135318 0.04356,-0.04507 0.08979,-0.08749 0.134686,-0.131229 0.300863,-0.29509 1.117743,-1.130806 1.412894,-1.431389 0.320347,-0.324147 0.637648,-0.651361 0.962567,-0.970944 0.272013,-0.24856 0.52668,-0.515048 0.785143,-0.777569 z"
       id="path154"
       style="fill:#000000;fill-opacity:1;stroke:none;stroke-width:0;stroke-miterlimit:4;stroke-dasharray:none" />
    <path
       sodipodi:nodetypes="cccccccccccc"
       inkscape:connector-curvature="0"
       d="m 88.986022,27.733149 c 0.16116,0.515961 0.423127,0.993982 0.693854,1.459255 0.419372,0.711389 0.951235,1.345381 1.518525,1.942065 0.496607,0.499812 1.073116,0.90702 1.605712,1.365625 0.263662,0.249694 0.13554,0.129962 0.38405,0.359534 l -1.169694,0.721201 v 0 c -0.24026,-0.233115 -0.116025,-0.113311 -0.37284,-0.359267 -0.531635,-0.462191 -1.099121,-0.884063 -1.591855,-1.389904 -0.572431,-0.60624 -1.113065,-1.245943 -1.547365,-1.960341 -0.279797,-0.468733 -0.543973,-0.949273 -0.74444,-1.45811 z"
       id="path162"
       style="fill:#000000;fill-opacity:1;stroke:none;stroke-width:0;stroke-miterlimit:4;stroke-dasharray:none" />
    <path
       sodipodi:nodetypes="ccccccccccccccccc"
       inkscape:connector-curvature="0"
       d="m 83.606463,37.511626 c 0.356441,0.04112 0.712777,0.08465 1.069964,0.120317 0.556279,0.04863 1.115145,0.05379 1.673143,0.0603 0.785882,0.01028 1.571297,-0.04748 2.353419,-0.118983 0.936662,-0.09874 1.868561,-0.228448 2.793817,-0.404109 0.848098,-0.171786 1.693506,-0.357264 2.542297,-0.525284 0.432461,-0.09282 0.223266,-0.04805 0.627581,-0.134345 l -1.087623,0.824764 v 0 c -0.396729,0.08013 -0.190828,0.03838 -0.617685,0.125322 -0.842944,0.167693 -1.68479,0.340814 -2.527025,0.512027 -0.930193,0.172955 -1.867411,0.299219 -2.808296,0.398822 -0.790257,0.06898 -1.58283,0.131491 -2.376768,0.11954 -0.565552,-0.0045 -1.132173,-0.0072 -1.695804,-0.05938 -0.364612,-0.03743 -0.729208,-0.07382 -1.093848,-0.110388 l 1.146828,-0.808609 z"
       id="path174"
       style="fill:#000000;fill-opacity:1;stroke:none;stroke-width:0;stroke-miterlimit:4;stroke-dasharray:none" />
    <path
       sodipodi:nodetypes="ccccccccccccccc"
       inkscape:connector-curvature="0"
       d="m 85.212862,32.69243 c 0.411822,0.0493 0.82635,0.07096 1.239679,0.105967 0.530979,0.05481 1.065517,0.04202 1.596398,-0.0048 0.478602,-0.04845 0.958305,-0.09826 1.432999,-0.176877 0.35904,-0.05512 0.717087,-0.11693 1.076703,-0.16831 0.235866,-0.02259 0.118356,-0.01233 0.352526,-0.03083 l -1.114647,0.824602 v 0 c -0.231249,0.0217 -0.115049,0.0089 -0.348584,0.03858 -0.355928,0.05526 -0.712147,0.107833 -1.068157,0.162544 -0.476295,0.06673 -0.953812,0.126613 -1.433351,0.164609 -0.535638,0.03706 -1.073018,0.04368 -1.607751,-0.01387 -0.424193,-0.03275 -0.849548,-0.04743 -1.272646,-0.09296 l 1.146831,-0.808609 z"
       id="path176"
       style="fill:#000000;fill-opacity:1;stroke:none;stroke-width:0;stroke-miterlimit:4;stroke-dasharray:none" />
    <path
       style="fill:none;fill-rule:nonzero;stroke:#0000d5;stroke-width:0.82064462;stroke-linecap:round;stroke-miterlimit:4"
       inkscape:connector-curvature="0"
       stroke-miterlimit="4"
       id="path4208"
       d="M 70.46574,40.574486" />
    <path
       style="fill:none;fill-rule:nonzero;stroke:#0000d5;stroke-width:0.6653204;stroke-linecap:round;stroke-miterlimit:4"
       inkscape:connector-curvature="0"
       stroke-miterlimit="4"
       id="path4209"
       d="M 68.569976,43.350008" />
    <g
       transform="matrix(-0.05322496,2.6735428e-4,-2.6735428e-4,-0.05322496,91.45123,48.692866)"
       id="svg_1">
      <path
         style="fill:none;fill-rule:nonzero;stroke:#000000;stroke-width:15.41822243;stroke-linecap:round;stroke-miterlimit:4"
         inkscape:connector-curvature="0"
         stroke-miterlimit="4"
         id="path4181"
         d="M 304.63312,42.079453 A 255.02116,255.02116 0 0 1 278.20599,460.42548" />
      <path
         style="fill:none;fill-rule:nonzero;stroke:#000000;stroke-width:12.5;stroke-linecap:round;stroke-miterlimit:4;stroke-dashoffset:0;marker-start:none;marker-mid:none;marker-end:none"
         inkscape:connector-curvature="0"
         stroke-miterlimit="4"
         id="path4196"
         d="M 272.0105,84.840057 A 200.50049,200.50049 0 0 1 251.23325,413.74835" />
      <path
         style="fill:none;fill-rule:nonzero;stroke:#000000;stroke-width:12.5;stroke-linecap:round;stroke-miterlimit:4;stroke-dashoffset:0;marker-start:none;marker-mid:none;marker-end:none"
         inkscape:connector-curvature="0"
         stroke-miterlimit="4"
         id="path4197"
         d="M 239.40475,130.29746 A 144.0722,144.0722 0 0 1 224.47498,366.63873" />
      <path
         style="fill:none;fill-rule:nonzero;stroke:#000000;stroke-width:12.5;stroke-linecap:round;stroke-miterlimit:4;stroke-dashoffset:0;marker-start:none;marker-mid:none;marker-end:none"
         inkscape:connector-curvature="0"
         stroke-miterlimit="4"
         id="path4198"
         d="M 210.1897,162.9957 A 100.85055,100.85055 0 0 1 199.73886,328.43457" />
    </g>
    <path
       style="fill:none;fill-rule:nonzero;stroke:#0000d5;stroke-width:0.6653204;stroke-linecap:round;stroke-miterlimit:4;stroke-dashoffset:0;marker-start:none;marker-mid:none;marker-end:none"
       inkscape:connector-curvature="0"
       stroke-miterlimit="4"
       id="path4211-6"
       d="M 100.96024,37.102525" />
    <path
       style="fill:none;fill-rule:nonzero;stroke:#0000d5;stroke-width:0.6653204;stroke-linecap:round;stroke-miterlimit:4;stroke-dashoffset:0;marker-start:none;marker-mid:none;marker-end:none"
       inkscape:connector-curvature="0"
       stroke-miterlimit="4"
       id="path4212-2"
       d="M 99.219857,35.547535" />
    <g
       transform="matrix(0.05322496,2.6735428e-4,2.6735428e-4,-0.05322496,83.611865,48.692866)"
       id="svg_1-9">
      <path
         style="fill:none;fill-rule:nonzero;stroke:#000000;stroke-width:15.41822243;stroke-linecap:round;stroke-miterlimit:4"
         inkscape:connector-curvature="0"
         stroke-miterlimit="4"
         id="path4181-1"
         d="M 304.63312,42.079453 A 255.02116,255.02116 0 0 1 278.20599,460.42548" />
      <path
         style="fill:none;fill-rule:nonzero;stroke:#000000;stroke-width:12.5;stroke-linecap:round;stroke-miterlimit:4;stroke-dashoffset:0;marker-start:none;marker-mid:none;marker-end:none"
         inkscape:connector-curvature="0"
         stroke-miterlimit="4"
         id="path4196-7"
         d="M 272.0105,84.840057 A 200.50049,200.50049 0 0 1 251.23325,413.74835" />
      <path
         style="fill:none;fill-rule:nonzero;stroke:#000000;stroke-width:12.5;stroke-linecap:round;stroke-miterlimit:4;stroke-dashoffset:0;marker-start:none;marker-mid:none;marker-end:none"
         inkscape:connector-curvature="0"
         stroke-miterlimit="4"
         id="path4197-0"
         d="M 239.40475,130.29746 A 144.0722,144.0722 0 0 1 224.47498,366.63873" />
      <path
         style="fill:none;fill-rule:nonzero;stroke:#000000;stroke-width:12.5;stroke-linecap:round;stroke-miterlimit:4;stroke-dashoffset:0;marker-start:none;marker-mid:none;marker-end:none"
         inkscape:connector-curvature="0"
         stroke-miterlimit="4"
         id="path4198-9"
         d="M 210.1897,162.9957 A 100.85055,100.85055 0 0 1 199.73886,328.43457" />
    </g>
    <text
       xml:space="preserve"
       style="font-style:normal;font-weight:normal;font-size:10.58333302px;line-height:1.25;font-family:sans-serif;letter-spacing:0px;word-spacing:0px;fill:#000000;fill-opacity:1;stroke:none;stroke-width:0.26458332"
       x="17.855595"
       y="33.839092"
       id="text35-3"><tspan
         sodipodi:role="line"
         x="17.855595"
         y="33.839092"
         style="font-style:normal;font-variant:normal;font-weight:normal;font-stretch:normal;font-size:15.875px;font-family:'Bitstream Charter';-inkscape-font-specification:'Bitstream Charter';fill:#000000;stroke-width:0.26458332"
         id="tspan1157">Santa</tspan></text>
    <text
       xml:space="preserve"
       style="font-style:normal;font-weight:normal;font-size:10.58333302px;line-height:1.25;font-family:sans-serif;letter-spacing:0px;word-spacing:0px;fill:#000000;fill-opacity:1;stroke:none;stroke-width:0.26458332"
       x="18.125469"
       y="47.523857"
       id="text35-0"><tspan
         sodipodi:role="line"
         id="tspan33-6"
         x="18.125469"
         y="47.523857"
         style="font-style:normal;font-variant:normal;font-weight:normal;font-stretch:normal;font-size:15.875px;font-family:'Bitstream Charter';-inkscape-font-specification:'Bitstream Charter';fill:#000000;stroke-width:0.26458332">Cruz</tspan></text>
    <path
       style="fill:#000000;fill-opacity:1;stroke:none;stroke-width:0.26499999;stroke-miterlimit:4;stroke-dasharray:none"
       id="path1253"
       d="m 84.051873,32.208837 c -0.0042,0.374309 0.01852,0.749475 0.0418,1.123104 0.02788,0.530096 0.09238,1.056646 0.161058,1.582626 0.06923,0.531034 0.154318,1.059149 0.279717,1.57986 0.105709,0.415646 0.257003,0.817188 0.3859,1.225674 0.04496,0.152191 0.113438,0.29541 0.164843,0.44523 0,0 -0.856882,0.469342 -0.856882,0.469342 v 0 c -0.04169,-0.1541 -0.11218,-0.297966 -0.152291,-0.452816 -0.118534,-0.414503 -0.271555,-0.818552 -0.374724,-1.237644 -0.127871,-0.523999 -0.210365,-1.055635 -0.282356,-1.590058 -0.06848,-0.526835 -0.136607,-1.05383 -0.170159,-1.584367 -0.02808,-0.371658 -0.04705,-0.744209 -0.06989,-1.116146 0,0 0.872977,-0.444805 0.872977,-0.444805 z"
       inkscape:connector-curvature="0" />
    <path
       style="fill:#000000;fill-opacity:1;stroke:none;stroke-width:0.26499999;stroke-miterlimit:4;stroke-dasharray:none"
       id="path1255"
       d="m 92.315504,32.933687 c -0.04034,0.31912 -0.07137,0.639422 -0.108741,0.958932 -0.04482,0.424058 -0.09315,0.847647 -0.144902,1.270921 -0.05102,0.409226 -0.06877,0.821333 -0.07728,1.233302 -0.0058,0.345267 -0.0044,0.690599 -0.0028,1.035895 7.93e-4,0.259593 0.0024,0.519174 0.0049,0.778753 7.94e-4,0.02533 0.0013,0.05066 0.0021,0.07599 0,0 -0.872041,0.444406 -0.872041,0.444406 v 0 c 7.94e-4,-0.02603 0.0013,-0.05206 0.0021,-0.07809 0.0021,-0.260956 0.0031,-0.521911 0.0032,-0.782876 0.0011,-0.346994 0.0013,-0.694012 0.0076,-1.040959 0.01074,-0.415384 0.02559,-0.831126 0.07728,-1.243844 0.05182,-0.422267 0.10002,-0.84477 0.140652,-1.268259 0.03705,-0.315689 0.06893,-0.632434 0.08835,-0.949688 0,0 0.879605,-0.434488 0.879605,-0.434488 z"
       inkscape:connector-curvature="0" />
  </g>
</svg>
